<svg viewBox="0 0 219 267" fill="none" xmlns="http://www.w3.org/2000/svg">
  <path opacity="0.97" fill-rule="evenodd" clip-rule="evenodd"
    d="M119.489 0.750244C126.929 2.17024 133.449 5.51025 138.969 10.6902C155.509 2.09025 174.249 8.60027 182.059 24.7803C198.949 18.2403 216.059 28.0003 218.109 46.3303C215.079 62.9803 200.599 73.7703 194.079 89.0103C229.599 124.28 218.879 178.93 207.759 223.68C196.719 249.23 183.529 262.55 155.539 266.77C101.679 266.6 -3.57118 237.69 0.978816 168.57C7.97882 118.54 43.7388 65.6903 95.8688 56.2703C101.839 33.6003 87.5588 7.23023 119.489 0.740234V0.750244Z"
    fill="#F6F7F8" />
  <path fill-rule="evenodd" clip-rule="evenodd"
    d="M144.349 27.2699C164.379 21.3199 162.679 27.7499 173.359 41.7699C179.509 42.4199 185.589 41.9999 191.589 40.5299C198.159 39.7699 200.779 42.5398 199.459 48.8198C188.309 62.8998 179.469 77.8198 172.939 93.5698C184.359 101.67 192.649 112.16 197.799 125.06C200.749 163.92 204.589 211.58 175.009 241.5C138.579 262.5 64.5489 234.21 34.9489 208.35C-4.87114 174.54 34.0989 116.85 63.1289 89.0098C76.9789 76.9398 95.7989 72.8998 113.679 72.8498C113.779 71.4398 114.059 70.0599 114.509 68.7099C112.869 61.8499 113.009 54.9398 114.919 47.9898C115.199 38.8698 115.469 29.7599 115.749 20.6399C123.149 14.5799 126.529 26.1698 131.079 30.1698C135.609 31.5898 139.749 27.3799 144.339 27.2699H144.349Z"
    fill="#011627" />
  <path fill-rule="evenodd" clip-rule="evenodd"
    d="M160.09 25.6097C154.84 23.7397 149.59 26.5897 144.34 27.2697C148.29 25.1297 156.68 21.7997 160.09 25.6097Z"
    fill="#20A4F3" />
  <path fill-rule="evenodd" clip-rule="evenodd"
    d="M174.18 51.2993C177.05 52.1093 180.09 52.3893 183.3 52.1293V54.6193C178.65 61.4393 174.64 68.6293 171.28 76.1693C167.32 79.3393 163.04 80.0293 158.43 78.2393C163.6 76.4693 182.4 52.9893 167.55 56.2793C164.55 65.2193 158.61 71.2993 149.73 74.5093C146.49 73.5993 143.31 72.4893 140.2 71.1993C138.96 67.0693 137.71 62.9293 136.47 58.7693C133.04 56.1393 130.96 56.9693 130.25 61.2593C131.3 63.9193 131.85 66.6793 131.91 69.5493C129.96 69.6793 128.02 69.5493 126.11 69.1393C120.09 60.1293 124.47 48.0193 126.11 38.0593C140.36 44.3393 148.72 32.5093 156.77 34.7493C160.71 41.2593 165.65 51.3093 174.17 51.3193L174.18 51.2993Z"
    fill="#20A4F3" />
  <path fill-rule="evenodd" clip-rule="evenodd"
    d="M150.151 35.5605C146.011 37.5805 141.591 38.9706 136.891 39.7006C141.031 37.6806 145.451 36.2905 150.151 35.5605Z"
    fill="#20A4F3" />
  <path fill-rule="evenodd" clip-rule="evenodd"
    d="M126.119 38.0409C125.569 40.5309 125.019 43.0109 124.459 45.5009C124.189 42.6809 124.469 39.9209 125.289 37.2109C125.789 37.3109 126.069 37.5909 126.119 38.0409Z"
    fill="#20A4F3" />
  <path fill-rule="evenodd" clip-rule="evenodd"
    d="M174.178 51.3007C178.058 51.1607 181.918 51.3007 185.778 51.7107C184.838 52.6607 184.008 53.6207 183.288 54.6107V52.1207C180.078 52.3807 177.038 52.1007 174.168 51.2907L174.178 51.3007Z"
    fill="#20A4F3" />
  <path fill-rule="evenodd" clip-rule="evenodd"
    d="M97.9406 73.6798C96.2706 74.8598 94.3406 75.4098 92.1406 75.3398C93.8106 74.1598 95.7406 73.6098 97.9406 73.6798Z"
    fill="#011627" />
  <path fill-rule="evenodd" clip-rule="evenodd"
    d="M104.57 82.801C106.33 81.861 108.27 81.721 110.37 82.391C109.75 83.251 108.92 83.671 107.88 83.631C106.99 82.861 105.89 82.581 104.57 82.801Z"
    fill="#20A4F3" />
  <path fill-rule="evenodd" clip-rule="evenodd"
    d="M104.57 82.7993C105.9 82.5793 107 82.8593 107.88 83.6293C105.12 85.0093 102.36 86.3893 99.5901 87.7693C100.2 86.7693 100.47 85.6593 100.42 84.4593C96.1502 83.9893 92.7002 85.3693 90.0602 88.5993C89.4702 87.3793 88.5102 86.8293 87.1602 86.9393C92.5502 84.2393 98.3602 82.8493 104.56 82.7993H104.57Z"
    fill="#20A4F3" />
  <path fill-rule="evenodd" clip-rule="evenodd"
    d="M99.6007 87.7695C95.2207 90.8995 90.9307 94.2195 86.7507 97.7095C84.6607 102.819 91.1807 102.329 93.7907 100.199C104.761 91.1195 121.861 80.8095 136.061 87.7695C131.681 90.7395 122.871 108.969 134.401 105.169C135.251 99.3194 138.011 94.6195 142.691 91.0795C147.111 88.8095 152.261 93.3194 156.781 93.9794C161.891 103.779 166.441 113.859 170.451 124.229C182.151 126.949 170.401 107.739 168.381 103.509C168.801 102.659 169.351 102.519 170.041 103.099C180.041 111.889 190.021 123.609 189.931 137.489C188.671 170.739 194.741 213.139 165.901 236.529C142.401 241.239 116.211 238.299 93.8007 229.489C72.2607 222.659 25.8407 201.569 28.3307 174.379C29.0407 140.739 50.6207 112.229 75.5707 91.5095C79.4907 90.5195 87.2707 84.2894 90.0707 88.6094C92.7107 85.3794 96.1607 83.9894 100.431 84.4694C100.491 85.6794 100.211 86.7795 99.6007 87.7795V87.7695Z"
    fill="#20A4F3" />
  <path fill-rule="evenodd" clip-rule="evenodd"
    d="M129.431 85.2795C126.651 85.3795 123.881 85.6494 121.141 86.1094C123.801 84.4294 126.561 84.1495 129.431 85.2795Z"
    fill="#20A4F3" />
  <path fill-rule="evenodd" clip-rule="evenodd"
    d="M128.599 110.141C128.239 113.791 128.239 117.381 128.599 120.911C140.859 124.591 148.619 136.331 145.999 149.091C144.979 149.791 144.149 150.611 143.509 151.581C129.309 157.181 135.649 139.161 126.939 135.831C125.229 132.771 119.709 134.441 116.999 135.001C109.579 136.681 107.499 141.111 110.779 148.261C115.659 155.881 125.249 158.971 132.739 163.591C149.749 177.511 137.979 204.531 116.989 204.611C117.199 209.991 117.789 219.591 109.529 216.631C104.979 214.051 108.359 208.661 107.869 204.611C94.1589 202.991 83.1089 190.671 84.2489 176.431C85.9489 171.801 93.8489 172.271 96.6789 175.601C101.439 204.901 143.609 185.371 119.469 172.291C105.799 165.451 96.0789 158.551 94.6089 141.631C96.4089 132.651 100.749 124.231 110.359 121.741C112.619 122.011 114.549 121.461 116.159 120.081H118.649C118.999 116.491 119.409 112.891 119.889 109.311C123.079 106.001 125.979 106.271 128.589 110.141H128.599Z"
    fill="#011627" />
  <path fill-rule="evenodd" clip-rule="evenodd"
    d="M116.167 120.09C114.557 121.47 112.627 122.02 110.367 121.75C112.037 120.57 113.967 120.02 116.167 120.09Z"
    fill="#20A4F3" />
  <path fill-rule="evenodd" clip-rule="evenodd"
    d="M128.598 110.141C129.668 113.071 129.668 116.111 128.598 119.261C131.578 120.351 137.338 120.841 136.888 125.061C134.378 123.251 131.618 121.871 128.598 120.921C128.238 117.391 128.238 113.801 128.598 110.151V110.141Z"
    fill="#20A4F3" />
  <path fill-rule="evenodd" clip-rule="evenodd"
    d="M117 135.01C119.7 134.44 125.24 132.78 126.94 135.84C123.66 135.2 120.35 134.92 117 135.01Z"
    fill="#20A4F3" />
  <path fill-rule="evenodd" clip-rule="evenodd"
    d="M96.2795 135.01C96.0295 137.39 95.4795 139.6 94.6195 141.64C94.2995 139.11 94.8495 136.9 96.2795 135.01Z"
    fill="#20A4F3" />
  <path fill-rule="evenodd" clip-rule="evenodd"
    d="M143.521 151.58C142.311 153.75 138.741 153.64 136.891 152.41C139.161 152.49 141.371 152.22 143.521 151.58Z"
    fill="#20A4F3" />
  <path fill-rule="evenodd" clip-rule="evenodd"
    d="M189.928 137.49C191.278 152.11 191.078 167.75 189.098 182.24C189.728 167.33 190.008 152.41 189.928 137.49Z"
    fill="#20A4F3" />
  <path fill-rule="evenodd" clip-rule="evenodd"
    d="M117 170.641C118.27 170.581 119.09 171.131 119.49 172.301C118.22 172.361 117.4 171.811 117 170.641Z"
    fill="#20A4F3" />
  <path fill-rule="evenodd" clip-rule="evenodd"
    d="M94.6181 173.96C91.8581 172.86 89.0881 172.86 86.3281 173.96C86.9581 171.55 93.9781 171.55 94.6181 173.96Z"
    fill="#20A4F3" />
  <path fill-rule="evenodd" clip-rule="evenodd"
    d="M140.199 174.791C143.159 176.271 141.659 181.451 141.029 183.911C141.179 180.821 140.899 177.781 140.199 174.791Z"
    fill="#20A4F3" />
  <path fill-rule="evenodd" clip-rule="evenodd"
    d="M97.9375 201.311C99.8575 201.721 101.518 202.541 102.908 203.801C100.578 204.201 98.9175 203.371 97.9375 201.311Z"
    fill="#20A4F3" />
  <path fill-rule="evenodd" clip-rule="evenodd"
    d="M123.63 203.791C121.96 204.971 120.03 205.521 117.83 205.451C118.08 207.841 117.81 210.051 117 212.081V204.621C119.21 204.351 121.42 204.061 123.63 203.791Z"
    fill="#20A4F3" />
  <path fill-rule="evenodd" clip-rule="evenodd"
    d="M88.8203 227.831C90.8103 227.631 92.4603 228.191 93.7903 229.491C91.8003 229.691 90.1503 229.131 88.8203 227.831Z"
    fill="#20A4F3" />
  <path fill-rule="evenodd" clip-rule="evenodd"
    d="M85.5078 236.94C87.4978 236.74 89.1478 237.3 90.4778 238.6C88.4878 238.8 86.8378 238.24 85.5078 236.94Z"
    fill="#011627" />
  <path fill-rule="evenodd" clip-rule="evenodd"
    d="M126.938 237.77C138.557 238.71 150.157 238.71 161.747 237.77C150.987 241.5 138.028 238.69 126.938 237.77Z"
    fill="#20A4F3" />
</svg>