<svg width="87" height="67" viewBox="0 0 87 67" fill="none" xmlns="http://www.w3.org/2000/svg">
<path d="M84.7375 66.3339C85.8124 65.7304 86.2538 64.7216 86.056 63.3238C85.9337 62.4775 85.4557 61.0587 84.6194 59.0622C84.601 59.0237 84.5825 58.9853 84.5641 58.9469C84.5615 58.9414 84.5562 58.9304 84.5536 58.9249C82.7029 55.1658 81.1877 52.0496 80.0024 49.5788C78.1559 45.7299 77.1173 43.4522 76.8919 42.743C76.8686 42.6664 76.8399 42.5924 76.8111 42.5184C76.1603 41.0069 75.0149 37.7605 73.364 32.7844C73.3302 32.6858 73.2909 32.5899 73.2435 32.491C73.1276 32.2494 72.9732 32.0263 72.7857 31.8326C71.5696 30.5788 70.3526 30.548 69.1459 31.7213C68.465 32.3857 68.2331 33.2399 68.4556 34.2949C68.5415 34.6994 68.7303 35.3181 69.0327 36.1456L69.0511 36.184C70.3899 39.7632 71.6833 43.2898 72.9259 46.753C51.3647 21.7449 28.3499 6.34986 3.87858 0.575852C2.54633 0.262631 1.20636 1.08782 0.893141 2.42007C0.755764 2.99255 0.836234 3.56858 1.0733 4.06273C1.38675 4.71611 1.98307 5.22703 2.74549 5.40837C28.3293 11.4457 52.38 28.62 74.8977 56.9312C67.418 53.279 60.7269 50.7073 54.8243 49.2163C53.4951 48.8813 52.1446 49.6845 51.8097 51.0137C51.664 51.5969 51.7387 52.1892 51.981 52.6943C52.2892 53.3368 52.8693 53.842 53.6152 54.0312C61.2078 55.9475 70.2721 59.8055 80.8029 65.594C81.0971 65.7568 81.4142 65.8546 81.7405 65.8872C82.5144 66.6979 83.7505 66.8952 84.7485 66.3286L84.7375 66.3339Z" fill="#20A4F3"/>
</svg>
