<svg width="38" height="8" viewBox="0 0 38 8" fill="none" xmlns="http://www.w3.org/2000/svg">
<path d="M10.8564 0.867188C8.91584 0.867188 7.33539 2.44763 7.33539 4.38818C7.33539 6.32872 8.91584 7.90916 10.8564 7.90916C12.7969 7.90916 14.3774 6.32872 14.3774 4.38818C14.3774 2.44763 12.7969 0.867188 10.8564 0.867188ZM10.8564 6.78485C9.53334 6.78485 8.45971 5.70855 8.45971 4.38818C8.45971 3.0678 9.53601 1.9915 10.8564 1.9915C12.1768 1.9915 13.2531 3.0678 13.2531 4.38818C13.2531 5.70855 12.1768 6.78485 10.8564 6.78485ZM18.2665 1.1606C16.4459 1.1606 14.9655 2.60768 14.9655 4.38818V7.61575H16.0992V4.38818C16.0992 3.21985 17.0715 2.26891 18.2665 2.26891C19.4615 2.26891 20.4337 3.21985 20.4337 4.38818V7.61575H21.5674V4.38818C21.5674 2.60768 20.087 1.1606 18.2665 1.1606ZM5.19879 3.42524C5.27348 3.23852 5.31482 3.0358 5.31482 2.82374C5.31482 1.90881 4.55594 1.1606 3.61835 1.1606H0V7.61575H4.73333C5.92566 7.61575 6.89527 6.66481 6.89527 5.49649C6.89527 4.48287 6.1684 3.63463 5.19879 3.42524ZM1.13098 2.26891H3.61835C3.9291 2.26891 4.18384 2.51565 4.18384 2.82374C4.18384 3.13182 3.93177 3.37856 3.61835 3.37856H1.13098V2.27025V2.26891ZM4.73466 6.50744H1.13098V4.48287H4.73333C5.30149 4.48287 5.76428 4.93633 5.76428 5.49382C5.76428 6.05131 5.30149 6.50477 4.73333 6.50477V6.50744H4.73466ZM22.3009 2.26891H27.0676C26.8049 2.80773 26.134 3.18117 25.1804 3.67598C23.896 4.3415 22.3009 5.16839 22.3009 7.06226V7.61708H28.3159V6.50877H23.5039C23.748 5.72989 24.5376 5.26442 25.7032 4.65892C26.9289 4.02541 28.3159 3.30387 28.3159 1.71676V1.1606H22.3009V2.26891ZM32.4238 1.1606C30.6433 1.1606 29.1962 2.60768 29.1962 4.38818V7.61575H30.3045V6.11133H34.543V7.61575H35.6513V4.38818C35.6513 2.60768 34.2043 1.1606 32.4238 1.1606ZM30.3058 5.00301V4.38818C30.3058 3.21985 31.2568 2.26891 32.4251 2.26891C33.5934 2.26891 34.5444 3.21985 34.5444 4.38818V5.00301H30.3058ZM38 1.1606H36.8263V7.61575H38V1.1606Z" fill="#F6F7F8"/>
</svg>
