<svg viewBox="0 0 230 241" fill="none" xmlns="http://www.w3.org/2000/svg">
<path opacity="0.97" fill-rule="evenodd" clip-rule="evenodd" d="M159.48 0.881104C187.39 2.0711 208.36 14.6211 222.39 38.5511C232.96 60.4811 232.42 82.1211 220.79 103.461C205.03 122.431 189.27 141.391 173.51 160.361C165.73 167.341 157.72 174.021 149.47 180.401C139.32 192.691 129.17 204.981 119.02 217.261C99.58 238.111 76.21 244.661 48.9 236.891C17.6 224.761 1.3 202.061 0 168.771C1.09 158.541 4.16 148.791 9.22 139.521C12.69 134.711 16.17 129.901 19.64 125.091C32.76 110.101 45.59 94.8711 58.11 79.4111C64.91 73.8711 71.86 68.5311 78.95 63.3811C91.09 48.3311 103.51 33.5011 116.22 18.9011C128.71 8.11109 143.13 2.09109 159.5 0.871094L159.48 0.881104ZM162.69 66.5911C164.9 67.8311 165.56 69.7111 164.69 72.2011C163.1 76.4611 160.69 80.2011 157.48 83.4211C154.99 80.9311 152.45 78.3911 149.87 75.8111C153.21 71.2311 157.49 68.1611 162.69 66.5911ZM72.93 159.561C75.82 161.381 78.49 163.521 80.94 165.971C78.13 171.051 73.99 174.521 68.52 176.391C66.62 174.641 66.09 172.501 66.92 169.981C68.12 165.991 70.12 162.521 72.93 159.561Z" fill="#F6F7F8"/>
<path fill-rule="evenodd" clip-rule="evenodd" d="M153.871 17.7104C178.431 16.6904 196.731 26.8504 208.771 48.1604C215.301 64.0504 214.501 79.5504 206.371 94.6404C190.281 115.01 173.581 134.91 156.281 154.35C151.671 157.52 147.001 160.59 142.261 163.57C128.541 180.23 114.511 196.66 100.191 212.86C73.661 229.93 49.751 226.86 28.461 203.64C12.801 181.99 13.061 160.62 29.261 139.53C44.321 121.53 59.681 103.76 75.341 86.2404C79.351 83.7004 83.351 81.1704 87.361 78.6304C98.831 64.6204 110.451 50.7304 122.221 36.9604C130.541 26.7304 141.091 20.3104 153.881 17.7304L153.871 17.7104ZM162.691 66.5904C157.491 68.1604 153.211 71.2304 149.871 75.8104C152.451 78.3904 154.991 80.9304 157.481 83.4204C160.691 80.2004 163.101 76.4604 164.691 72.2004C165.561 69.7104 164.891 67.8304 162.691 66.5904ZM72.931 159.56C70.121 162.52 68.121 165.99 66.921 169.98C66.091 172.5 66.631 174.64 68.521 176.39C73.991 174.52 78.131 171.05 80.941 165.97C78.491 163.52 75.821 161.38 72.931 159.56Z" fill="#011627"/>
<path fill-rule="evenodd" clip-rule="evenodd" d="M111.402 76.2115C107.662 75.6715 103.922 75.1415 100.182 74.6115C111.742 61.0315 123.502 47.5515 135.442 34.1415C158.882 20.0415 179.592 23.3815 197.552 44.1615C208.182 59.8315 208.712 75.8615 199.152 92.2415C184.462 109.872 169.762 127.502 155.072 145.132C131.952 164.402 110.042 163.062 89.3518 141.122C86.1218 137.342 83.7218 133.072 82.1418 128.302C81.3918 125.592 81.9218 123.192 83.7418 121.092C87.3418 116.552 91.7518 113.082 96.9618 110.672C96.5718 124.462 102.452 134.482 114.592 140.722C129.652 143.812 142.072 139.402 151.862 127.502C161.442 115.512 171.332 103.752 181.512 92.2415C187.762 83.3115 190.172 73.4215 188.722 62.5915C183.472 48.2815 173.192 41.7415 157.872 42.9615C152.132 44.4915 146.792 46.8915 141.842 50.1715C133.652 58.5015 125.902 67.1815 118.602 76.2215C116.242 76.8815 113.832 76.8815 111.392 76.2215L111.402 76.2115Z" fill="#2EC4B6"/>
<path opacity="0.99" fill-rule="evenodd" clip-rule="evenodd" d="M180.32 61.7811C180.92 65.7511 181.19 69.7611 181.12 73.8011C180.22 79.0711 178.22 83.8711 175.11 88.2311C168.7 95.7111 162.29 103.191 155.88 110.671C151.15 100.071 144.07 91.3911 134.64 84.6211C131.7 82.8811 128.76 81.1511 125.82 79.4111C132.32 71.1711 139.26 63.2911 146.66 55.7711C153.46 51.1311 160.94 49.5311 169.1 50.9611C174.32 53.1111 178.06 56.7111 180.32 61.7811ZM162.69 66.5911C157.49 68.1611 153.21 71.2311 149.87 75.8111C152.45 78.3911 154.99 80.9311 157.48 83.4211C160.69 80.2011 163.1 76.4611 164.69 72.2011C165.56 69.7111 164.89 67.8311 162.69 66.5911Z" fill="#F6F7F8"/>
<path fill-rule="evenodd" clip-rule="evenodd" d="M100.179 74.6113C103.919 75.1513 107.659 75.6813 111.399 76.2113C107.359 76.4713 103.349 76.2113 99.3789 75.4113C99.4789 74.9213 99.7489 74.6613 100.179 74.6113Z" fill="#2EC4B6"/>
<path fill-rule="evenodd" clip-rule="evenodd" d="M96.9683 83.4207C120.258 81.3807 137.228 90.7207 147.858 111.471C149.168 114.581 149.708 117.791 149.458 121.091C145.368 126.531 140.158 130.271 133.828 132.311C135.348 116.611 128.668 106.331 113.788 101.461C99.1183 99.6407 87.2383 104.591 78.1283 116.291C69.5783 126.441 61.0283 136.591 52.4783 146.741C44.7383 156.071 41.5383 166.751 42.8583 178.801C48.3683 195.541 59.7283 202.091 76.9183 198.431C81.2383 197.201 85.2483 195.341 88.9383 192.821C97.8183 183.951 106.098 174.601 113.778 164.771C119.548 164.591 125.298 164.191 131.008 163.571C132.018 163.851 132.288 164.391 131.808 165.171C121.088 177.221 110.668 189.511 100.558 202.031C77.4183 222.071 55.2483 221.011 34.0383 198.821C24.0483 184.921 22.1783 169.961 28.4283 153.941C30.5683 150.731 32.6983 147.531 34.8383 144.321C48.2283 129.061 61.3183 113.571 74.1083 97.8407C80.4183 90.8407 88.0283 86.0407 96.9483 83.4107L96.9683 83.4207Z" fill="#2EC4B6"/>
<path fill-rule="evenodd" clip-rule="evenodd" d="M105.789 108.271C122.289 109.451 128.969 118.261 125.829 134.721C115.279 134.721 108.469 129.661 105.389 119.491C104.869 115.721 104.999 111.981 105.789 108.271Z" fill="#F6F7F8"/>
<path opacity="0.99" fill-rule="evenodd" clip-rule="evenodd" d="M74.5295 132.311C81.6395 145.691 92.0495 155.711 105.78 162.361C99.3995 170.821 92.4595 178.841 84.9395 186.401C76.7095 192.891 67.8895 193.971 58.4895 189.611C50.9895 183.411 48.4495 175.531 50.8795 165.971C52.0395 162.051 53.6395 158.311 55.6895 154.751C62.1395 147.371 68.4095 139.891 74.5195 132.311H74.5295ZM72.9295 159.561C70.1195 162.521 68.1195 165.991 66.9195 169.981C66.0895 172.501 66.6295 174.641 68.5195 176.391C73.9895 174.521 78.1295 171.051 80.9395 165.971C78.4895 163.521 75.8195 161.381 72.9295 159.561Z" fill="#F6F7F8"/>
</svg>
