<svg width="233" height="229" viewBox="0 0 233 229" fill="none" xmlns="http://www.w3.org/2000/svg">
  <path
    d="M232.987 114.507C232.987 120.653 207.68 124.522 206.643 130.383C205.605 136.245 228.032 148.653 225.983 154.269C223.933 159.885 198.795 154.968 195.773 160.169C192.751 165.371 209.6 184.611 205.722 189.218C201.843 193.824 179.948 180.587 175.317 184.469C170.687 188.351 180.013 212.133 174.747 215.161C169.48 218.189 153.526 198.262 147.793 200.333C142.06 202.403 142.734 227.919 136.702 228.967C130.671 230.015 122.642 205.806 116.481 205.806C110.319 205.806 102.134 229.989 96.2586 228.967C90.3827 227.945 90.7978 202.377 85.1683 200.333C79.5388 198.288 63.4287 218.163 58.2143 215.161C52.9999 212.159 62.2743 188.338 57.6436 184.469C53.0129 180.6 31.1307 193.85 27.2393 189.218C23.348 184.586 40.2234 165.41 37.1882 160.169C34.1529 154.929 9.0668 159.988 6.97846 154.269C4.89011 148.55 27.382 136.413 26.3184 130.383C25.2547 124.354 0 120.653 0 114.507C0 108.361 25.3066 104.492 26.3443 98.6305C27.382 92.769 4.95496 80.3603 7.0044 74.7447C9.05383 69.1291 34.1918 74.046 37.2141 68.8445C40.2364 63.6429 23.3869 44.4023 27.2653 39.796C31.1436 35.1896 53.0389 48.4264 57.6695 44.5447C62.3002 40.6629 52.974 16.8807 58.2403 13.8529C63.4417 10.851 79.461 30.7515 85.1942 28.6812C90.9275 26.611 90.24 1.09488 96.2716 0.0338663C102.303 -1.02715 110.332 23.195 116.494 23.195C122.655 23.195 130.853 -0.98833 136.715 0.0338663C142.578 1.05606 142.176 26.6239 147.806 28.6683C153.435 30.7127 169.545 10.8381 174.76 13.84C179.974 16.8419 170.7 40.6629 175.33 44.5317C179.961 48.4006 201.843 35.1508 205.735 39.7831C209.626 44.4153 192.751 63.5912 195.786 68.8315C198.821 74.0719 223.907 69.0127 225.996 74.7318C228.084 80.4509 205.592 92.5879 206.656 98.6175C207.719 104.647 233 108.348 233 114.494L232.987 114.507Z"
    fill="#20A4F3" />
  <path
    d="M56.5938 117.482C56.3868 115.688 56.2258 114.814 55.9038 113.043C55.4438 110.214 55.1218 108.949 54.5928 106.281C54.2708 104.487 53.9488 103.153 53.5578 101.382H58.3648C58.7328 105.499 59.3768 109.57 60.1818 113.618C60.2048 113.296 60.2508 112.951 60.2968 112.583C60.7108 108.857 61.0558 105.131 61.3088 101.382H63.6088C63.8618 105.131 64.2298 108.857 64.6438 112.583C64.6668 112.951 64.7128 113.296 64.7358 113.595C64.8048 113.273 64.8738 112.928 64.9198 112.583C65.6558 108.88 66.2078 105.154 66.5528 101.382H71.3828C70.9688 103.153 70.6468 104.487 70.3248 106.281C69.8188 108.949 69.4968 110.214 69.0138 113.043C68.7148 114.814 68.5308 115.688 68.3238 117.482H63.6778C63.5168 115.688 63.4478 114.814 63.2868 113.043C62.9878 110.214 62.8268 108.949 62.5508 106.281C62.5278 105.982 62.4818 105.706 62.4588 105.43C62.4358 105.706 62.3898 105.982 62.3668 106.281C62.0908 108.949 61.9298 110.214 61.6538 113.043C61.4698 114.814 61.4008 115.688 61.2628 117.482H56.5938ZM72.101 117.482C72.216 115.688 72.331 114.676 72.377 112.882C72.446 110.191 72.446 108.673 72.377 105.982C72.331 104.188 72.216 103.176 72.101 101.382H82.612V105.269C81.784 105.177 81.002 105.039 80.243 105.016C79.162 104.947 77.851 104.901 76.609 104.924C76.563 105.89 76.563 106.879 76.54 107.868C77.345 107.891 77.943 107.868 78.863 107.845C79.622 107.799 80.013 107.753 80.772 107.684V110.766C80.013 110.674 79.622 110.651 78.863 110.605C77.943 110.582 77.345 110.559 76.54 110.582C76.54 111.709 76.563 112.836 76.609 113.94C77.943 113.986 79.438 113.94 80.588 113.871C81.347 113.825 82.267 113.71 83.095 113.618V117.482H72.101ZM89.2163 117.482C89.3313 115.688 89.4463 114.676 89.4923 112.882C89.5613 110.191 89.5613 108.673 89.4923 105.982C89.4463 104.188 89.3313 103.176 89.2163 101.382H95.6333C99.9343 101.382 102.878 104.096 102.878 109.432C102.878 114.745 99.9343 117.482 95.6333 117.482H89.2163ZM93.7243 113.963L95.4493 114.032C97.0823 114.055 98.5773 112.514 98.5773 109.432C98.5773 106.35 97.2663 104.809 95.6333 104.809L93.7473 104.878C93.7243 105.223 93.7013 105.568 93.7013 105.982C93.6323 108.673 93.6323 110.191 93.7013 112.882C93.7013 113.273 93.7243 113.618 93.7243 113.963ZM110.67 117.712C106.369 117.712 103.425 114.906 103.425 109.432C103.425 103.935 106.369 101.152 110.67 101.152C114.994 101.152 117.915 103.935 117.915 109.432C117.915 114.906 114.994 117.712 110.67 117.712ZM110.67 114.17C112.395 114.17 113.614 112.606 113.614 109.432C113.614 106.258 112.395 104.694 110.67 104.694C108.945 104.694 107.726 106.258 107.726 109.432C107.726 112.606 108.945 114.17 110.67 114.17ZM130.683 117.712C126.382 117.712 123.438 114.906 123.438 109.432C123.438 103.935 126.382 101.152 130.683 101.152C134.57 101.152 137.353 103.245 137.767 107.431L133.489 107.799C133.259 105.706 132.132 104.694 130.683 104.694C128.958 104.694 127.739 106.258 127.739 109.432C127.739 112.606 129.165 114.17 130.867 114.17C132.408 114.17 133.489 112.928 133.834 110.375L137.974 111.295C137.399 115.55 134.501 117.712 130.683 117.712ZM145.777 117.712C141.476 117.712 138.532 114.906 138.532 109.432C138.532 103.935 141.476 101.152 145.777 101.152C150.101 101.152 153.022 103.935 153.022 109.432C153.022 114.906 150.101 117.712 145.777 117.712ZM145.777 114.17C147.502 114.17 148.721 112.606 148.721 109.432C148.721 106.258 147.502 104.694 145.777 104.694C144.052 104.694 142.833 106.258 142.833 109.432C142.833 112.606 144.052 114.17 145.777 114.17ZM160.848 117.712C156.547 117.712 153.603 114.906 153.603 109.432C153.603 103.935 156.547 101.152 160.848 101.152C165.172 101.152 168.093 103.935 168.093 109.432C168.093 114.906 165.172 117.712 160.848 117.712ZM160.848 114.17C162.573 114.17 163.792 112.606 163.792 109.432C163.792 106.258 162.573 104.694 160.848 104.694C159.123 104.694 157.904 106.258 157.904 109.432C157.904 112.606 159.123 114.17 160.848 114.17ZM169.042 117.482C169.157 115.688 169.272 114.676 169.318 112.882C169.387 110.191 169.387 108.673 169.318 105.982C169.272 104.188 169.157 103.176 169.042 101.382H173.803C173.688 103.176 173.573 104.188 173.527 105.982C173.458 108.673 173.458 110.191 173.527 112.882C173.527 113.273 173.55 113.618 173.55 113.963C174.838 113.986 176.195 113.94 177.299 113.871C178.058 113.825 178.978 113.71 179.783 113.618V117.482H169.042ZM69.2926 137.712C64.8766 137.712 62.0476 135.527 61.7486 131.18L66.0266 130.789C66.1186 133.066 67.2916 134.17 69.1086 134.17C70.7876 134.17 71.9606 133.434 71.9606 131.985C71.9606 127.753 61.9556 132.376 61.9556 126.35C61.9556 123.107 64.6466 121.152 68.6256 121.152C72.8116 121.152 75.5946 123.199 75.9626 127.431L71.6846 127.799C71.5236 125.66 70.3966 124.694 68.5796 124.694C67.0386 124.694 66.0726 125.522 66.0726 126.764C66.0726 130.375 76.4226 126.879 76.4226 132.905C76.4226 135.964 73.2486 137.712 69.2926 137.712ZM80.0721 137.482C80.1871 135.688 80.3251 134.676 80.3481 132.882C80.4401 130.191 80.4401 128.673 80.3481 125.982C80.3481 125.591 80.3251 125.246 80.3251 124.924C79.6581 124.924 78.9911 124.97 78.3701 125.016C77.7031 125.039 77.1051 125.177 76.3921 125.269V121.382H88.6741V125.269C87.9611 125.177 87.3631 125.039 86.6731 125.016C86.0061 124.97 85.3161 124.924 84.6031 124.924C84.5801 125.246 84.5571 125.591 84.5571 125.982C84.4881 128.673 84.4881 130.191 84.5571 132.882C84.6031 134.676 84.7411 135.688 84.8561 137.482H80.0721ZM95.868 137.712C92.303 137.712 89.681 135.941 89.681 130.858C89.704 128.88 89.75 127.178 89.75 125.982C89.727 124.188 89.589 123.176 89.497 121.382H94.281C94.189 123.176 94.028 124.188 94.028 125.982C94.028 127.73 93.982 129.317 93.982 130.858C93.982 133.227 94.833 134.17 95.891 134.17C96.949 134.17 97.777 133.204 97.754 130.858C97.754 128.88 97.823 127.178 97.823 125.982C97.8 124.188 97.662 123.176 97.57 121.382H102.354C102.262 123.176 102.101 124.188 102.101 125.982C102.101 127.73 102.032 129.317 102.032 130.858C102.032 135.941 99.433 137.712 95.868 137.712ZM103.647 137.482C103.762 135.688 103.877 134.676 103.923 132.882C103.992 130.191 103.992 128.673 103.923 125.982C103.877 124.188 103.762 123.176 103.647 121.382H114.158V125.269C113.33 125.177 112.548 125.039 111.789 125.016C110.708 124.947 109.397 124.901 108.155 124.924C108.109 125.89 108.109 126.879 108.086 127.868C108.891 127.891 109.489 127.868 110.409 127.845C111.168 127.799 111.559 127.753 112.318 127.684V130.766C111.559 130.674 111.168 130.651 110.409 130.605C109.489 130.582 108.891 130.559 108.086 130.582C108.086 131.272 108.109 132.031 108.132 132.882C108.178 134.676 108.293 135.688 108.408 137.482H103.647ZM115.17 137.482C115.285 135.688 115.4 134.676 115.446 132.882C115.515 130.191 115.515 128.673 115.446 125.982C115.4 124.188 115.285 123.176 115.17 121.382H125.681V125.269C124.853 125.177 124.071 125.039 123.312 125.016C122.231 124.947 120.92 124.901 119.678 124.924C119.632 125.89 119.632 126.879 119.609 127.868C120.414 127.891 121.012 127.868 121.932 127.845C122.691 127.799 123.082 127.753 123.841 127.684V130.766C123.082 130.674 122.691 130.651 121.932 130.605C121.012 130.582 120.414 130.559 119.609 130.582C119.609 131.272 119.632 132.031 119.655 132.882C119.701 134.676 119.816 135.688 119.931 137.482H115.17ZM131.634 137.482C131.749 135.688 131.864 134.676 131.91 132.882C131.979 130.191 131.979 128.673 131.91 125.982C131.864 124.188 131.749 123.176 131.634 121.382H142.145V125.269C141.317 125.177 140.535 125.039 139.776 125.016C138.695 124.947 137.384 124.901 136.142 124.924C136.096 125.89 136.096 126.879 136.073 127.868C136.878 127.891 137.476 127.868 138.396 127.845C139.155 127.799 139.546 127.753 140.305 127.684V130.766C139.546 130.674 139.155 130.651 138.396 130.605C137.476 130.582 136.878 130.559 136.073 130.582C136.073 131.272 136.096 132.031 136.119 132.882C136.165 134.676 136.28 135.688 136.395 137.482H131.634ZM149.921 137.712C145.62 137.712 142.676 134.906 142.676 129.432C142.676 123.935 145.62 121.152 149.921 121.152C154.245 121.152 157.166 123.935 157.166 129.432C157.166 134.906 154.245 137.712 149.921 137.712ZM149.921 134.17C151.646 134.17 152.865 132.606 152.865 129.432C152.865 126.258 151.646 124.694 149.921 124.694C148.196 124.694 146.977 126.258 146.977 129.432C146.977 132.606 148.196 134.17 149.921 134.17ZM158.115 137.482C158.207 135.688 158.322 134.676 158.368 132.882C158.414 130.191 158.414 128.673 158.368 125.982C158.322 124.188 158.207 123.176 158.115 121.382H164.532C168.833 121.382 171.777 122.555 171.777 127.109C171.777 130.076 170.351 131.525 168.281 131.847C169.293 133.756 170.489 135.849 171.455 137.482H166.648C165.682 135.389 164.831 132.491 163.842 130.283C163.796 130.191 163.75 130.099 163.704 130.007C163.681 129.961 163.658 129.915 163.635 129.869H163.658C163.52 129.501 163.474 129.133 163.474 128.811H162.6C162.6 130.099 162.623 131.272 162.646 132.882C162.692 134.676 162.807 135.688 162.899 137.482H158.115ZM162.623 127.316H162.738C164.44 127.316 164.279 128.627 165.751 128.627C166.717 128.627 167.476 128.006 167.476 126.603C167.476 125.085 166.165 124.786 164.532 124.832L162.692 124.901C162.646 125.706 162.623 126.511 162.623 127.316Z"
    fill="#F6F7F8" />
</svg>