<svg width="15" height="18" viewBox="0 0 15 18" fill="none" xmlns="http://www.w3.org/2000/svg">
<path fill-rule="evenodd" clip-rule="evenodd" d="M5.65987 1.45839C4.64217 1.98576 3.80556 2.43199 3.80811 2.44974C3.80811 2.49791 6.25416 3.72759 6.33833 3.72252C6.37659 3.72252 6.66226 3.59068 6.97344 3.43095L7.53968 3.14444L8.15693 3.46137L8.77418 3.7783L9.78423 3.32699C11.3044 2.6475 11.4625 2.57144 11.437 2.54862C11.4064 2.51312 10.858 2.22409 9.37613 1.44825C8.6594 1.07554 7.96818 0.705369 7.833 0.631842C7.70037 0.555779 7.57284 0.5 7.54988 0.5C7.52693 0.5 6.67247 0.931022 5.65477 1.45839H5.65987ZM1.19116 3.75802L0.130102 4.3006V6.6915C0.130102 8.00738 0.142854 9.0824 0.160709 9.0824C0.176012 9.0824 0.698892 8.85675 1.32125 8.58292L2.45118 8.08345V5.56324L3.00211 5.85988C3.42806 6.0906 3.85147 6.31879 4.27742 6.54952L5.0018 6.93743L5.32318 6.79292C5.52723 6.70164 5.72618 6.61037 5.92768 6.51909C6.08327 6.44556 6.46586 6.27569 6.77704 6.13878C7.08822 6.00186 7.37389 5.86495 7.41725 5.83199C7.47081 5.79142 6.8102 5.42632 4.97119 4.48822C3.58365 3.78083 2.40526 3.20529 2.3517 3.20783C2.29814 3.21037 1.77526 3.4563 1.19371 3.75802H1.19116ZM11.6283 3.91014C10.9065 4.23468 10.3148 4.51357 10.3148 4.52878C10.3148 4.544 10.7101 4.77726 11.1896 5.04601C11.6742 5.31476 12.0645 5.54802 12.0645 5.56831C12.0645 5.58859 11.6385 5.79396 11.1157 6.02468C10.5953 6.25794 9.27666 6.84869 8.18754 7.34057L4.54014 8.98098C3.62191 9.39172 2.79551 9.76443 2.70114 9.805C0.828975 10.6493 0.308648 10.8826 0.239781 10.9231C0.170914 10.9637 0.153056 11.1969 0.140303 12.3759L0.125 13.7831L1.07383 14.2648L2.02267 14.7465L3.33879 14.1558C4.06062 13.8312 4.65492 13.5498 4.65492 13.527C4.65492 13.5042 4.52229 13.4205 4.35905 13.3343C4.19581 13.2481 3.85912 13.0605 3.60916 12.9134C3.36175 12.7689 3.11434 12.6345 3.05822 12.6168C3.00466 12.599 2.95875 12.5686 2.95875 12.5483C2.95875 12.5306 3.53774 12.2542 4.24682 11.9424C5.62161 11.3313 6.66991 10.8623 8.92467 9.84556C9.93217 9.39426 10.9397 8.93788 11.9523 8.48658C12.8399 8.08852 13.8703 7.62453 14.2427 7.45213L14.9212 7.1428L14.9365 5.72043L14.9518 4.29806L13.9902 3.81126C13.4622 3.54251 13.0082 3.32192 12.9853 3.32192C12.9598 3.32192 12.3502 3.59068 11.6283 3.91268V3.91014ZM14.6661 9.04437C14.5233 9.11283 14.2427 9.24467 14.0438 9.33087C13.8448 9.41708 13.4622 9.58949 13.197 9.71119L12.7175 9.92923L12.7073 11.1767C12.7022 11.8638 12.6766 12.4216 12.6511 12.419C12.595 12.4089 11.6947 11.95 10.7866 11.4682C10.1311 11.1209 10.0903 11.1057 9.93727 11.1817C9.848 11.2248 9.31747 11.4632 8.75633 11.7066C8.19774 11.9525 7.72077 12.168 7.69782 12.1908C7.67486 12.2086 8.80224 12.8171 10.2025 13.5397L12.7455 14.8556L13.8321 14.2952C14.4289 13.9884 14.9391 13.707 14.962 13.6715C15.0156 13.5929 15.0105 8.90746 14.9595 8.91506C14.9365 8.9176 14.8039 8.97591 14.6636 9.04437H14.6661ZM8.64155 14.5412C8.4528 14.6198 8.26406 14.7034 8.07531 14.7846C7.50652 15.028 7.6162 15.0381 6.94028 14.7034C6.48882 14.4778 6.29497 14.4119 6.20825 14.4448C6.14449 14.4702 5.6012 14.7136 4.9967 14.9849C4.39475 15.2562 3.87953 15.4818 3.85402 15.4818C3.59896 15.4818 4.02236 15.7303 5.64456 16.5441L7.54733 17.5L8.34823 17.107C8.78694 16.8915 9.6771 16.4579 10.3199 16.1461C10.9652 15.8342 11.483 15.5705 11.4753 15.5579C11.4651 15.5477 10.9244 15.2739 10.274 14.9443L9.09046 14.351L8.64155 14.5437V14.5412Z" fill="#F6F7F8"/>
</svg>
