<?xml version="1.0" encoding="UTF-8"?>
<svg id="Layer_1" data-name="Layer 1" xmlns="http://www.w3.org/2000/svg" version="1.1" viewBox="0 0 356 364">
  <defs>
    <style>
      .cls-1 {
        fill: #011627;
      }

      .cls-1, .cls-2, .cls-3 {
        fill-rule: evenodd;
        stroke-width: 0px;
      }

      .cls-2 {
        fill: #f6f7f8;
        isolation: isolate;
        opacity: 1;
      }

      .cls-3 {
        fill: #20a4f3;
      }
    </style>
  </defs>
  <path class="cls-2" d="M222.1,19.2c3.7,1.5,7.1,3.4,10.2,5.7,26.8,20.9,53.6,42,80.2,63.1,2.4,2.8,4.2,5.9,5.4,9.4,8.1,23.1,16.6,46.1,25.4,69,4.1,9.9,2.6,18.9-4.6,26.9-73.8,55.6-147.7,111.1-221.5,166.7-12.3,4.6-21.7,1.2-28.3-10.2-4.2-10.8-7.7-21.8-10.6-32.9-21.3-80.6-41.8-161.5-61.4-242.6-.5-7.9,2.4-14.3,8.7-19.2,23.1-15.2,46.2-30.6,69.1-46.2,2.7-2,5.6-3.3,8.9-4.1,5.1-.1,10.1.2,15.1,1,34.5,4.7,69,9.2,103.4,13.3h0Z"/>
  <path class="cls-1" d="M215.6,34.6c2.1.7,4.1,1.5,6,2.6,26.4,20.6,52.7,41.3,79.1,62,10.2,26.6,19.9,53.2,29,80.1-73.4,55.7-147,111.2-220.7,166.6-1.8-.1-3.4-.7-4.8-1.8-.8-1.7-1.6-3.4-2.3-5.1-5.7-18.7-11.1-37.4-16.2-56.3-13.7-53.2-27.1-106.4-40.4-159.7-4.5-17.4-8.4-34.8-11.8-52.4,24-17.3,48.4-33.8,73.4-49.6,36.3,4.5,72.5,9,108.6,13.8h0Z"/>
  <path class="cls-3" d="M212.4,41.1c2.8.9,5.4,2.3,7.8,4,23,18.7,46.5,36.7,70.4,54.1-9.6,3.5-18,8.9-25.4,16.1-25.9-7.2-52.2-9.9-79-8.1-10.9-10.7-22.4-20.8-34.4-30.2-8.6-5.7-17.6-10.5-27.2-14.4,1.8-12.7-1.5-23.9-10-33.5.3-.1.6-.3.9-.4,32.3,4.5,64.6,8.6,96.8,12.4h0Z"/>
  <path class="cls-3" d="M105.2,29.8c9.9,8,14,18.3,12.5,30.9-.5,1.2-1.3,2.2-2.3,3-16.5,12.5-33.1,24.9-49.8,37.2-2.6-5.9-5.7-11.6-9.2-16.9-3.8-5-8.8-8-14.8-9-.3-.5-.5-1.1-.5-1.7,21.5-14.3,42.9-28.8,64.2-43.4h0Z"/>
  <path class="cls-3" d="M295.3,105.3c8.6,22,16.8,44.2,24.8,66.5-9.6-2.7-19.3-3.6-29.2-2.7-2.6.7-5.2,1.4-7.8,2.1-4.3-16.9-8.4-33.9-12-50.9,6.6-7.3,14.6-12.3,24.2-15h0Z"/>
  <path class="cls-3" d="M120.1,68.6c14.5,5.4,27.6,13.3,39.2,23.5,5.9,5.2,11.6,10.6,17.2,16.1-.5,2.1-1.1,4.3-1.6,6.4-5.7,13.4-11.4,26.7-17.2,40-14.8-10-29.7-19.8-44.8-29.4-13.7-7.3-27.9-13.6-42.5-18.9,16.7-12.3,33.3-24.8,49.6-37.6h0Z"/>
  <path class="cls-3" d="M255.1,119.7c3.3,1,6.4,2.4,9.3,4.2,4.1,16.6,7.9,33.3,11.6,50-21.1-5.3-42.3-10-63.7-14-16.1-1.9-32.2-2.3-48.3-1.3,6.1-14.7,12.4-29.5,18.7-44.1,12.8-.5,25.7-.5,38.7,0,11.4,1.1,22.6,2.9,33.7,5.2h0Z"/>
  <path class="cls-3" d="M311.9,177.2c2,.5,3.7,1.4,5.2,2.7-54.6,41.4-109.3,82.7-164.1,123.8,41.9-41.5,84.4-82.8,127.3-123.6,10.2-5,20.8-5.9,31.7-2.9Z"/>
  <path class="cls-3" d="M43.7,82.7c3.8,1.8,6.6,4.5,8.6,8.2,5,9.2,9.3,18.7,13,28.5,5.5,22.8,10.4,45.8,14.6,68.9,5.5,36.2,11.7,72.3,18.5,108.3.3,1.1.2,2.1-.3,3-19.3-72-37.4-144.2-54.3-216.8h0Z"/>
  <path class="cls-3" d="M259.3,177c3.3,1,6.4,2.4,9.3,4.2-51.2,49.7-102.5,99.2-154,148.5,15.5-54.6,31.1-109.1,46.6-163.7,21.4-1.9,42.6-.8,63.8,3.3,11.5,2.8,22.9,5.4,34.3,7.7Z"/>
  <path class="cls-3" d="M84.2,119.5c-4.1-1.8-8.3-3.1-12.5-3.9-.4-.2-.5-.5-.4-.9,4.8.7,9.1,2.3,12.9,4.8Z"/>
  <path class="cls-3" d="M84.2,119.5c11.7,4.4,22.7,10,33.3,16.6,12.6,8.6,25.1,17.2,37.5,26-14.5,52.1-29.6,104-45.2,155.7-9.8-50.6-18.8-101.4-26.9-152.4-3.3-16.7-7.1-33.4-11.2-49.8,4.2.8,8.4,2.1,12.5,3.9Z"/>
</svg>