<svg width="18" height="18" viewBox="0 0 18 18" fill="none" xmlns="http://www.w3.org/2000/svg">
<path d="M4.5132 8.58259C4.5132 8.48796 4.53213 8.39332 4.56762 8.30578C4.60311 8.21824 4.65753 8.1378 4.72377 8.07156C4.79002 8.00531 4.87046 7.95089 4.958 7.9154C5.04553 7.87992 5.14017 7.86099 5.23481 7.86099L6.43669 7.86572C6.62833 7.86572 6.81288 7.94143 6.94773 8.07629C7.08259 8.21114 7.1583 8.39569 7.1583 8.58733V13.1323C7.29315 13.092 7.46824 13.0494 7.65751 13.0045C7.79 12.9737 7.9083 12.898 7.9911 12.7916C8.07628 12.6851 8.12123 12.5526 8.12123 12.4177V6.77976C8.12123 6.58812 8.19694 6.40358 8.3318 6.26872C8.46665 6.13387 8.6512 6.05816 8.84284 6.05816H10.0471C10.2387 6.05816 10.4233 6.13387 10.5581 6.26872C10.693 6.40358 10.7687 6.58812 10.7687 6.77976V12.0132C10.7687 12.0132 11.0692 11.8901 11.3649 11.7671C11.4737 11.7198 11.566 11.6441 11.6322 11.5447C11.6985 11.4454 11.7316 11.3294 11.734 11.2111V4.9722C11.734 4.78056 11.8097 4.59602 11.9446 4.46116C12.0794 4.32631 12.264 4.2506 12.4556 4.2506H13.6598C13.8515 4.2506 14.036 4.32631 14.1709 4.46116C14.3057 4.59602 14.3814 4.78056 14.3814 4.9722V10.1086C15.4248 9.35152 16.4847 8.44064 17.3246 7.34758C17.4477 7.18907 17.5281 7.00216 17.5589 6.80342C17.592 6.60469 17.5731 6.40358 17.5092 6.21431C17.1212 5.09523 16.5037 4.07079 15.6945 3.20486C14.8878 2.33893 13.9083 1.65045 12.8199 1.18437C11.7316 0.718279 10.5581 0.486419 9.3728 0.500615C8.18984 0.51481 7.02108 0.775061 5.94459 1.26717C4.86809 1.75928 3.90516 2.46906 3.11731 3.35391C2.32946 4.23877 1.73798 5.2774 1.37599 6.40595C1.01401 7.53213 0.89098 8.72455 1.01637 9.90041C1.14177 11.0786 1.51086 12.2166 2.09997 13.2435C2.2017 13.4209 2.35312 13.5652 2.5353 13.6599C2.71747 13.7545 2.92094 13.7947 3.12678 13.7758C3.3539 13.7569 3.63781 13.7285 3.97614 13.6882C4.12283 13.6717 4.25768 13.6007 4.35705 13.4919C4.45642 13.3807 4.51083 13.2387 4.51083 13.092V8.58023L4.5132 8.58259Z" fill="#F6F7F8"/>
<path d="M4.48438 15.8731C5.75487 16.7958 7.25487 17.3518 8.81874 17.4748C10.385 17.5978 11.9536 17.2879 13.3518 16.5734C14.7501 15.8613 15.926 14.7753 16.7469 13.4362C17.5679 12.0971 18.0009 10.5569 18.0009 8.98827C18.0009 8.7919 17.9914 8.59789 17.9796 8.40625C14.8708 13.0435 9.12868 15.2106 4.48674 15.8707" fill="#F6F7F8"/>
</svg>
