<svg width="222" height="262" viewBox="0 0 222 262" fill="none" xmlns="http://www.w3.org/2000/svg">
<path opacity="0.97" fill-rule="evenodd" clip-rule="evenodd" d="M88.0031 0C97.0971 0.236645 103.994 4.1751 108.71 11.8323C110.155 17.0469 111.287 22.1179 112.09 27.0452C126.052 15.2721 141.831 6.82045 159.419 1.69032C173.77 3.62574 180.675 11.6548 180.126 25.7774C196.251 22.7433 206.106 29.2257 209.706 45.2161C209.368 50.4561 208.802 55.806 208.016 61.2742C209.63 81.0594 212.732 100.642 217.313 120.013C217.135 120.512 216.856 120.934 216.468 121.281C217.364 124.484 218.209 127.729 219.003 131C218.826 131.499 218.547 131.921 218.158 132.268C219.383 139.063 220.508 145.824 221.539 152.552C221.403 162.102 221.403 171.686 221.539 181.287C219.814 191.454 217.702 201.74 215.2 212.135C204.889 239.933 185.171 255.704 156.039 259.465C154.348 260.031 152.658 260.589 150.968 261.155C150.621 260.766 150.199 260.487 149.7 260.31C146.995 260.842 144.316 261.4 141.671 262C117.068 260.994 92.136 256.625 66.8741 248.9C48.551 242.68 32.6282 232.681 19.1225 218.897C2.46435 198.199 -3.3081 175.379 1.79668 150.439C1.70371 149.644 1.42481 148.934 0.951515 148.326C4.46739 133.857 8.82842 119.624 14.0515 105.645C30.0927 69.4554 50.5202 36.0715 75.3257 5.49355C79.2557 2.76368 83.4815 0.929677 88.0031 0Z" fill="#F6F7F8"/>
<path fill-rule="evenodd" clip-rule="evenodd" d="M87.1587 17.7491C89.3054 17.4111 91.1394 17.9773 92.6522 19.4395C92.6607 38.1598 93.2269 56.7533 94.3425 75.2201C108.744 49.2736 129.729 30.8153 157.307 19.862C162.234 18.5943 164.06 20.4198 162.801 25.3556C150.115 47.372 145.044 71.0366 147.588 96.3491C159.09 78.9304 170.923 61.7482 183.084 44.7943C185.899 41.4137 188.722 41.4137 191.536 44.7943C191.029 54.894 191.029 65.0359 191.536 75.2201C196.024 99.9326 199.971 124.721 203.368 149.594C204.112 164.292 203.546 178.947 201.678 193.543C195.838 225.574 176.543 242.334 143.784 243.83C113.054 244.312 83.7527 238.116 55.8877 225.236C39.5676 217.368 27.8791 205.113 20.8135 188.472C17.9738 176.808 17.1286 164.976 18.278 152.975C24.2956 124.045 34.9953 96.9999 50.3942 71.8395C61.5165 52.9839 73.7713 34.9566 87.1587 17.7491Z" fill="#011627"/>
<path fill-rule="evenodd" clip-rule="evenodd" d="M195.338 185.935C194.062 188.505 193.496 191.328 193.648 194.387C189.625 218.559 175.536 232.216 151.39 235.377C164.853 225.481 172.316 212.102 173.786 195.232C173.398 174.357 170.575 153.794 165.335 133.535C164.16 132.648 162.892 132.504 161.532 133.113C155.954 140.381 149.758 147.143 142.938 153.397C138.552 156.431 134.047 158.966 129.415 161.003C126.804 155.138 124.691 149.086 123.077 142.832C121.606 128.752 120.195 114.663 118.851 100.574C118.226 99.6698 117.38 99.1036 116.315 98.8839C104.88 109.195 95.2963 121.027 87.58 134.381C85.8812 138.928 84.1909 143.432 82.509 147.903C75.7308 137.694 72.3502 126.419 72.3671 114.097C71.412 112.652 70.1443 112.229 68.5638 112.829C60.1376 127.957 52.6663 143.593 46.1671 159.735C43.6062 167.866 42.0596 176.174 41.5187 184.668C41.8314 197.683 46.9023 208.391 56.7316 216.784C31.1992 203.726 20.9221 182.732 25.8832 153.819C29.6695 134.009 36.1519 115.128 45.3219 97.1935C56.6471 74.8137 69.8907 53.6846 85.0445 33.8064C85.2135 49.6025 85.7798 65.3732 86.7348 81.1355C87.749 88.9786 91.1296 90.3815 96.8767 85.3613C104.407 71.9147 113.56 59.6599 124.344 48.5968C132.754 41.8777 141.628 35.8179 150.967 30.4258C146.15 41.7932 142.482 53.6255 139.98 65.9226C138.23 80.0959 138.788 94.1848 141.67 108.181C143.597 111.172 145.854 111.451 148.432 109.026C159.216 91.6831 170.626 74.7798 182.661 58.3161C183.278 68.2129 184.266 78.076 185.619 87.8968C189.109 105.856 192.211 123.884 194.915 141.987C196.394 156.625 196.538 171.28 195.338 185.935Z" fill="#FF3366"/>
<path fill-rule="evenodd" clip-rule="evenodd" d="M113.358 108.18C113.882 108.273 114.305 108.552 114.626 109.025C114.305 129.064 118.108 148.223 126.035 166.496C127.362 167.451 128.774 167.595 130.261 166.918C142.339 160.749 152.624 152.441 161.11 141.986C166.24 160.174 168.775 178.768 168.716 197.767C166.341 210.258 160.569 220.823 151.39 229.46C146.598 233.12 141.248 235.089 135.332 235.376C145.542 221.305 151.593 205.669 153.503 188.47C152.041 187.557 150.494 187.422 148.855 188.047C140.936 190.642 133.05 193.313 125.19 196.076C115.217 189.957 109.724 180.94 108.71 169.031C107.839 166.175 106.005 165.194 103.216 166.073C95.9477 173.992 89.1864 182.309 82.9322 191.005C76.6104 186.239 70.4154 181.303 64.3387 176.215C62.978 175.607 61.7102 175.75 60.5355 176.638C60.265 191.58 62.8005 205.948 68.1419 219.741C48.382 206.937 42.1786 189.188 49.5484 166.496C54.6024 152.162 60.7975 138.36 68.1419 125.083C69.8745 136.493 74.5229 146.499 82.0871 155.086C83.2111 155.652 84.3437 155.652 85.4677 155.086C88.3751 146.939 91.612 138.91 95.1871 130.999C101.103 123.257 107.163 115.651 113.358 108.18Z" fill="#FFDA00"/>
<path fill-rule="evenodd" clip-rule="evenodd" d="M195.339 185.936C195.297 188.961 194.739 191.776 193.649 194.387C193.497 191.328 194.063 188.505 195.339 185.936Z" fill="#FF3366"/>
</svg>
