<svg viewBox="0 0 199 204" fill="none" xmlns="http://www.w3.org/2000/svg">
<path opacity="0.97" fill-rule="evenodd" clip-rule="evenodd" d="M84.2725 0.0414076C92.9225 -0.0685924 101.562 0.0414076 110.202 0.361408C123.052 2.40141 130.072 9.86141 131.272 22.7214C140.072 14.3314 149.472 13.5714 159.472 20.4514C165.872 27.0614 172.032 33.8714 177.942 40.8714C180.522 46.1214 182.362 51.6314 183.452 57.4014C182.752 61.3014 181.452 64.9714 179.562 68.4214C188.323 70.0514 194.042 75.1214 196.742 83.6514C197.492 86.0014 198.142 88.3814 198.682 90.7814C199.112 99.8514 199.112 108.931 198.682 118.001C196.172 129.161 189.153 135.101 177.613 135.831C180.623 141.601 182.992 147.651 184.742 153.981C184.102 157.531 182.913 160.881 181.173 164.031C175.443 169.751 169.722 175.481 163.992 181.211C152.722 190.321 142.022 189.571 131.902 178.941C131.472 185.201 129.742 191.041 126.712 196.441C123.652 200.361 119.652 202.631 114.722 203.251C106.082 203.681 97.4325 203.681 88.7925 203.251C82.7725 202.191 77.9125 199.271 74.2125 194.501C72.4825 189.741 70.4225 185.201 68.0525 180.891C59.6925 189.021 50.6125 189.991 40.8325 183.811C33.7825 177.201 27.1925 170.171 21.0625 162.741C18.3225 157.761 16.4825 152.471 15.5525 146.861C16.1025 142.801 17.4025 139.011 19.4425 135.521C14.9325 134.291 10.9325 132.131 7.4525 129.041C5.0125 125.621 3.0725 121.951 1.6225 118.021C1.1925 116.291 0.7625 114.571 0.3225 112.831C-0.1075 103.761 -0.1075 94.6814 0.3225 85.6114C1.3525 79.7614 4.2725 75.1214 9.0725 71.6714C13.0125 69.8714 17.1125 68.5814 21.3925 67.7814C12.9325 58.8214 12.1725 49.2014 19.1225 38.9314C25.2825 32.5514 31.6525 26.3914 38.2425 20.4614C48.7325 13.7014 58.3525 14.8914 67.0925 24.0314C67.7425 17.7314 69.6925 11.9014 72.9225 6.53141C75.9425 2.91141 79.7225 0.751408 84.2625 0.0514076L84.2725 0.0414076Z" fill="#F6F7F8"/>
<path fill-rule="evenodd" clip-rule="evenodd" d="M110.201 14.3017C101.311 14.1117 92.4511 14.3317 83.6211 14.9517C83.6911 14.5517 83.9111 14.2217 84.2711 13.9817C93.0211 13.4417 101.671 13.5517 110.201 14.3017Z" fill="#20A4F3"/>
<path fill-rule="evenodd" clip-rule="evenodd" d="M110.204 14.3018C112.054 15.5018 113.994 16.5818 116.034 17.5418C117.044 19.1218 117.474 20.8518 117.334 22.7318C117.374 24.6318 117.804 26.3518 118.634 27.9218V31.1618C118.934 34.7618 119.574 38.2218 120.574 41.5318C121.944 43.1118 123.674 43.8618 125.764 43.8018C131.814 39.0518 137.864 34.2918 143.914 29.5418C145.944 29.0318 147.894 29.2418 149.744 30.1918C154.804 35.8918 160.094 41.4018 165.624 46.7218C167.654 50.0318 169.064 53.6018 169.834 57.4218C169.724 58.1818 169.614 58.9318 169.514 59.6918C164.434 65.5418 160.004 71.8018 156.224 78.4918C157.604 79.7018 159.334 80.1418 161.414 79.7918C163.664 80.4518 166.044 80.8918 168.544 81.0918C172.444 81.5218 176.334 82.0618 180.214 82.7118C182.904 84.7318 184.524 87.4318 185.074 90.8118C185.504 99.6718 185.504 108.532 185.074 117.392C184.564 118.742 183.804 119.932 182.804 120.962C179.344 121.532 175.884 122.072 172.434 122.582C168.424 122.992 164.534 123.642 160.764 124.522C159.394 126.562 158.314 128.832 157.524 131.332C160.944 135.692 164.294 140.122 167.574 144.622C168.554 146.922 169.424 149.292 170.164 151.752C170.594 153.262 170.594 154.782 170.164 156.292C164.504 162.062 158.784 167.672 152.984 173.142C151.084 173.662 149.144 173.872 147.154 173.792C141.674 169.932 136.274 165.932 130.944 161.802C130.334 161.492 129.684 161.382 129.004 161.482C127.784 161.302 126.924 161.742 126.414 162.782C124.334 163.692 122.174 164.342 119.934 164.722C119.034 167.812 118.604 171.052 118.634 174.442C117.734 177.532 117.304 180.772 117.334 184.162C117.234 186.332 116.364 188.162 114.744 189.672C105.604 190.292 96.5336 190.082 87.5236 189.022C85.1036 186.012 83.2636 182.662 82.0136 178.972C81.4636 173.972 80.7136 168.992 79.7436 164.062C77.2736 163.152 74.8936 162.062 72.6136 160.822C66.4436 165.522 60.1736 170.062 53.8136 174.432C52.4736 174.422 51.1836 174.202 49.9236 173.782C45.6236 169.042 41.0836 164.502 36.3136 160.172C35.9336 158.712 35.0736 157.632 33.7236 156.932C32.4136 154.322 31.1236 151.722 29.8336 149.152C29.6136 146.802 30.0436 144.642 31.1336 142.672C34.7736 137.412 38.5536 132.222 42.4736 127.112C42.7936 126.272 42.9036 125.412 42.7936 124.522C35.2336 123.612 27.6736 122.632 20.1036 121.602C18.9436 121.092 17.9736 120.342 17.1836 119.332C16.4736 116.562 15.3936 113.962 13.9436 111.552C13.5136 103.122 13.5136 94.7018 13.9436 86.2718C14.1436 84.4518 15.1136 83.3718 16.8636 83.0318C21.3536 82.5818 25.6736 81.7118 29.8236 80.4418C33.4436 79.6418 37.1136 79.2118 40.8436 79.1418C41.3936 76.9818 41.7136 74.8218 41.8136 72.6618C37.5236 66.4218 32.9836 60.3818 28.2036 54.5118C27.7736 53.2118 27.7736 51.9218 28.2036 50.6218C29.1336 49.4718 29.7836 48.1818 30.1436 46.7318C36.0836 41.2218 42.0236 35.7118 47.9736 30.2018C49.7036 29.7718 51.4336 29.7718 53.1636 30.2018C59.4336 34.8518 65.6936 39.4918 71.9636 44.1418C73.9436 42.7218 76.1036 41.6418 78.4436 40.9018C79.7336 35.3518 80.5936 29.7318 81.0336 24.0518C82.1436 21.8818 82.5836 19.5118 82.3336 16.9218C82.6136 16.1418 83.0436 15.4918 83.6336 14.9818C92.4636 14.3618 101.324 14.1418 110.214 14.3318L110.204 14.3018Z" fill="#011627"/>
<path fill-rule="evenodd" clip-rule="evenodd" d="M82.3313 16.8906C82.5813 19.4806 82.1513 21.8606 81.0312 24.0206C81.2313 21.5206 81.6613 19.1406 82.3313 16.8906Z" fill="#20A4F3"/>
<path fill-rule="evenodd" clip-rule="evenodd" d="M88.8125 21.4321C94.9625 20.7921 101.223 20.5721 107.613 20.7821C107.933 22.2821 108.153 23.7921 108.263 25.3221C107.333 24.4921 106.903 23.4121 106.963 22.0821C100.933 21.5021 94.8825 21.2921 88.8125 21.4321Z" fill="#20A4F3"/>
<path fill-rule="evenodd" clip-rule="evenodd" d="M88.8127 21.4305C94.8827 21.2905 100.933 21.5005 106.963 22.0805C106.903 23.4105 107.333 24.4905 108.263 25.3205C109.273 30.4605 109.923 35.6505 110.203 40.8805C102.203 40.0505 94.2127 40.0505 86.2227 40.8805C86.7727 34.3505 87.6327 27.8605 88.8127 21.4305Z" fill="#20A4F3"/>
<path fill-rule="evenodd" clip-rule="evenodd" d="M117.332 22.7305C118.452 24.2105 118.882 25.9405 118.632 27.9205C117.812 26.3605 117.382 24.6305 117.332 22.7305Z" fill="#20A4F3"/>
<path fill-rule="evenodd" clip-rule="evenodd" d="M49.9233 37.6406C51.4033 37.7106 52.7033 38.2506 53.8133 39.2606C57.8233 42.5206 61.9333 45.6506 66.1333 48.6606C64.0233 51.0106 61.6433 53.0706 59.0033 54.8206C55.5333 58.2306 52.2833 61.7906 49.2833 65.5206C45.1633 60.5406 41.2733 55.3506 37.6133 49.9606C41.5333 45.6106 45.6433 41.5006 49.9333 37.6406H49.9233Z" fill="#20A4F3"/>
<path fill-rule="evenodd" clip-rule="evenodd" d="M145.854 36.9922C150.564 41.0522 154.884 45.5922 158.814 50.6022C155.294 55.6822 151.624 60.6522 147.794 65.5122C144.914 62.4622 142.104 59.3322 139.364 56.1122C136.374 53.8722 133.564 51.4922 130.934 48.9822C135.824 44.8422 140.794 40.8422 145.844 36.9922H145.854Z" fill="#20A4F3"/>
<path fill-rule="evenodd" clip-rule="evenodd" d="M118.633 31.1621C119.873 34.4221 120.523 37.8821 120.573 41.5321C119.573 38.2221 118.923 34.7621 118.633 31.1621Z" fill="#20A4F3"/>
<path fill-rule="evenodd" clip-rule="evenodd" d="M104.374 153.021C98.7339 153.161 93.1139 152.941 87.5239 152.371C66.9139 147.431 53.1939 134.891 46.3639 114.771C40.0739 86.3008 49.4739 64.8008 74.5639 50.2708C98.9039 40.5008 120.404 44.7108 139.064 62.9108C152.814 79.4708 156.264 98.0508 149.434 118.661C140.894 138.531 125.874 149.991 104.384 153.011L104.374 153.021Z" fill="#20A4F3"/>
<path fill-rule="evenodd" clip-rule="evenodd" d="M103.722 65.5105C99.5923 65.4105 95.4923 65.6305 91.4023 66.1605C93.5823 65.1605 95.9623 64.7305 98.5323 64.8605C100.382 64.8605 102.112 65.0805 103.722 65.5105Z" fill="#20A4F3"/>
<path fill-rule="evenodd" clip-rule="evenodd" d="M103.724 65.512C119.534 68.252 129.794 77.322 134.514 92.732C136.844 112.172 129.174 125.892 111.504 133.892C88.844 139.392 73.494 131.282 65.484 109.582C64.914 103.992 64.704 98.372 64.834 92.732C68.744 78.882 77.604 70.022 91.414 66.152C95.494 65.622 99.604 65.402 103.734 65.502L103.724 65.512Z" fill="#011627"/>
<path fill-rule="evenodd" clip-rule="evenodd" d="M103.722 70.7019C99.3817 70.6019 95.0517 70.8119 90.7617 71.3519C93.0517 70.3519 95.5417 69.9219 98.2117 70.0519C100.172 70.0519 102.002 70.2719 103.722 70.7019Z" fill="#20A4F3"/>
<path fill-rule="evenodd" clip-rule="evenodd" d="M103.724 70.7016C116.884 73.1116 125.414 80.6716 129.324 93.3916C131.454 109.542 125.294 121.322 110.854 128.722C95.9437 133.542 83.7337 129.762 74.2337 117.382C72.8437 114.802 71.6537 112.212 70.6637 109.602C69.6337 102.852 69.8437 96.1416 71.3137 89.5116C75.0937 80.5516 81.5737 74.4916 90.7637 71.3616C95.0637 70.8216 99.3837 70.6116 103.724 70.7116V70.7016Z" fill="#20A4F3"/>
<path fill-rule="evenodd" clip-rule="evenodd" d="M156.223 78.4707C158.023 78.8507 159.753 79.2807 161.413 79.7707C159.343 80.1207 157.613 79.6907 156.223 78.4707Z" fill="#20A4F3"/>
<path fill-rule="evenodd" clip-rule="evenodd" d="M79.7321 107.001C79.2121 103.141 78.9921 99.2513 79.0821 95.3313C82.8121 83.2013 91.0321 78.1113 103.712 80.1013C113.702 82.8013 118.882 89.2913 119.272 99.5513C117.222 114.631 108.582 121.331 93.3421 119.641C86.9921 117.291 82.4621 113.071 79.7321 107.001Z" fill="#011627"/>
<path fill-rule="evenodd" clip-rule="evenodd" d="M161.414 79.772C164.004 79.522 166.374 79.952 168.544 81.072C166.044 80.872 163.664 80.432 161.414 79.772Z" fill="#20A4F3"/>
<path fill-rule="evenodd" clip-rule="evenodd" d="M29.8233 80.4219C25.6733 81.7019 21.3533 82.5619 16.8633 83.0119C17.1333 82.5419 17.5633 82.2219 18.1633 82.0419C22.0533 81.4719 25.9433 80.9319 29.8333 80.4219H29.8233Z" fill="#20A4F3"/>
<path fill-rule="evenodd" clip-rule="evenodd" d="M35.6639 86.252H40.2039C39.3739 94.252 39.3739 102.242 40.2039 110.232C33.6939 109.582 27.2039 108.712 20.7539 107.642V88.8419C25.8239 88.0919 30.7939 87.232 35.6639 86.252Z" fill="#20A4F3"/>
<path fill-rule="evenodd" clip-rule="evenodd" d="M173.081 88.8523C173.541 89.4323 174.191 89.6523 175.021 89.5023V107.652C168.921 108.212 162.871 109.082 156.871 110.242C157.691 102.462 157.691 94.6823 156.871 86.9023C162.351 86.9623 167.751 87.6123 173.081 88.8423V88.8523Z" fill="#20A4F3"/>
<path fill-rule="evenodd" clip-rule="evenodd" d="M99.1836 94.0308C101.434 93.2908 103.814 93.1808 106.314 93.7108C106.674 93.9608 106.894 94.2808 106.964 94.6808C104.414 94.1208 101.824 93.9108 99.1836 94.0308Z" fill="#20A4F3"/>
<path fill-rule="evenodd" clip-rule="evenodd" d="M99.1839 94.0307C101.824 93.9107 104.414 94.1207 106.964 94.6807C108.434 95.2907 109.734 96.1507 110.854 97.2707C111.384 99.3807 111.604 101.551 111.504 103.751C110.214 108.061 107.414 110.871 103.074 112.181C99.5939 112.251 96.1339 112.031 92.7039 111.531C91.4739 110.751 90.2839 109.891 89.1339 108.941C87.9739 100.881 91.3239 95.9207 99.1839 94.0307Z" fill="#F6F7F8"/>
<path fill-rule="evenodd" clip-rule="evenodd" d="M64.8326 92.7422C64.6926 98.3822 64.9126 104.002 65.4826 109.592C64.9826 109.102 64.6626 108.452 64.5126 107.652C63.9826 102.572 64.0826 97.6022 64.8326 92.7422Z" fill="#20A4F3"/>
<path fill-rule="evenodd" clip-rule="evenodd" d="M71.3142 89.4905C69.8542 96.1305 69.6342 102.83 70.6642 109.58C69.6642 106.62 69.2342 103.49 69.3642 100.18C69.0542 96.3505 69.7042 92.7805 71.3042 89.4805L71.3142 89.4905Z" fill="#20A4F3"/>
<path fill-rule="evenodd" clip-rule="evenodd" d="M110.852 97.2715C111.252 97.3415 111.572 97.5615 111.822 97.9215C112.342 99.9915 112.232 101.941 111.502 103.751C111.602 101.551 111.392 99.3815 110.852 97.2715Z" fill="#20A4F3"/>
<path fill-rule="evenodd" clip-rule="evenodd" d="M173.082 88.8516H175.672C175.882 95.2316 175.672 101.502 175.022 107.652V89.5016C174.182 89.6616 173.532 89.4416 173.082 88.8516Z" fill="#20A4F3"/>
<path fill-rule="evenodd" clip-rule="evenodd" d="M79.0915 95.332C79.0015 99.252 79.2215 103.132 79.7415 107.002C78.7515 104.932 78.3215 102.662 78.4415 100.192C78.4415 98.452 78.6615 96.832 79.0915 95.332Z" fill="#20A4F3"/>
<path fill-rule="evenodd" clip-rule="evenodd" d="M92.7031 111.531C96.1331 112.031 99.5931 112.251 103.073 112.181C101.793 112.611 100.393 112.831 98.8631 112.831C96.6131 112.941 94.5531 112.511 92.7031 111.531Z" fill="#20A4F3"/>
<path fill-rule="evenodd" clip-rule="evenodd" d="M172.432 122.551C168.752 123.911 164.862 124.561 160.762 124.491C164.532 123.611 168.422 122.961 172.432 122.551Z" fill="#20A4F3"/>
<path fill-rule="evenodd" clip-rule="evenodd" d="M47.3216 131.631C50.0916 133.041 52.1516 135.211 53.4816 138.111C56.9616 141.701 60.5316 145.161 64.1816 148.481C59.4516 152.151 54.7016 155.821 49.9216 159.501C45.7116 155.181 41.6016 150.751 37.6016 146.211C40.7416 141.241 43.9816 136.381 47.3216 131.631Z" fill="#20A4F3"/>
<path fill-rule="evenodd" clip-rule="evenodd" d="M147.802 131.631C152.002 136.161 155.892 141.021 159.472 146.211C155.662 151.101 151.232 155.311 146.182 158.851C141.122 155.941 136.472 152.481 132.242 148.481C138.572 143.881 143.762 138.261 147.802 131.631Z" fill="#20A4F3"/>
<path fill-rule="evenodd" clip-rule="evenodd" d="M31.1214 142.651C30.0314 144.631 29.6014 146.791 29.8214 149.131C29.0814 147.531 28.9814 145.801 29.5014 143.941C29.9614 143.371 30.5014 142.941 31.1214 142.641V142.651Z" fill="#20A4F3"/>
<path fill-rule="evenodd" clip-rule="evenodd" d="M87.5117 152.371C93.1117 152.941 98.7217 153.151 104.362 153.021C99.5117 153.771 94.5417 153.881 89.4517 153.341C88.6517 153.191 88.0017 152.871 87.5117 152.371Z" fill="#20A4F3"/>
<path fill-rule="evenodd" clip-rule="evenodd" d="M33.7109 156.912C35.0609 157.612 35.9309 158.692 36.3009 160.152C34.9509 159.452 34.0809 158.372 33.7109 156.912Z" fill="#20A4F3"/>
<path fill-rule="evenodd" clip-rule="evenodd" d="M108.263 171.171C107.243 172.211 106.813 173.501 106.963 175.061H88.8127C88.3727 169.381 87.5027 163.761 86.2227 158.211C86.5427 158.001 86.8727 157.781 87.1927 157.561C94.4327 159.221 101.673 159.221 108.903 157.561C109.123 158.321 109.333 159.071 109.553 159.831C108.803 163.581 108.373 167.361 108.253 171.171H108.263Z" fill="#20A4F3"/>
<path fill-rule="evenodd" clip-rule="evenodd" d="M129.004 161.452C128.344 162.212 127.484 162.642 126.414 162.752C126.924 161.712 127.784 161.282 129.004 161.452Z" fill="#20A4F3"/>
<path fill-rule="evenodd" clip-rule="evenodd" d="M119.924 164.691C119.964 168.081 119.524 171.321 118.624 174.411C118.584 171.021 119.024 167.781 119.924 164.691Z" fill="#20A4F3"/>
<path fill-rule="evenodd" clip-rule="evenodd" d="M152.981 173.111C152.911 173.511 152.691 173.841 152.331 174.081C150.471 174.601 148.741 174.491 147.141 173.761C149.131 173.841 151.071 173.631 152.971 173.111H152.981Z" fill="#20A4F3"/>
<path fill-rule="evenodd" clip-rule="evenodd" d="M49.9219 173.762C51.1719 174.182 52.4719 174.402 53.8119 174.412C53.4219 174.822 52.8819 175.042 52.1919 175.062C51.0919 175.132 50.3319 174.702 49.9219 173.762Z" fill="#20A4F3"/>
<path fill-rule="evenodd" clip-rule="evenodd" d="M108.263 171.172C108.153 172.702 107.933 174.212 107.613 175.712C101.233 175.922 94.9625 175.712 88.8125 175.062H106.963C106.803 173.502 107.243 172.212 108.263 171.172Z" fill="#20A4F3"/>
<path fill-rule="evenodd" clip-rule="evenodd" d="M118.631 174.412C118.671 177.802 118.231 181.042 117.331 184.132C117.291 180.742 117.731 177.502 118.631 174.412Z" fill="#20A4F3"/>
</svg>
