<svg
  width="100%"
  height="100%"
  viewbox="0 0 1417 1417"
  fill="currentColor"
  xmlns="http://www.w3.org/2000/svg"
>
  <path d="M0 671.793L708.5 708.501L0 745.208V671.793Z"></path>
  <path d="M33.6454 489.668L708.502 708.499L14.6406 560.582L33.6454 489.668Z"></path>
  <path d="M113.278 322.459L708.503 708.5L76.5703 386.041L113.278 322.459Z"></path>
  <path d="M233.472 181.561L708.502 708.5L181.562 233.47L233.472 181.561Z"></path>
  <path d="M386.043 76.5664L708.502 708.499L322.461 113.274L386.043 76.5664Z"></path>
  <path d="M560.582 14.6387L708.499 708.5L489.668 33.6434L560.582 14.6387Z"></path>
  <path d="M745.208 0L708.501 708.5L671.793 0H745.208Z"></path>
  <path d="M927.331 33.6434L708.5 708.5L856.417 14.6387L927.331 33.6434Z"></path>
  <path d="M1094.54 113.274L708.5 708.499L1030.96 76.5664L1094.54 113.274Z"></path>
  <path d="M1235.44 233.47L708.5 708.5L1183.53 181.561L1235.44 233.47Z"></path>
  <path d="M1340.43 386.041L708.5 708.5L1303.73 322.459L1340.43 386.041Z"></path>
  <path d="M1402.36 560.582L708.5 708.499L1383.36 489.668L1402.36 560.582Z"></path>
  <path d="M1417 745.208L708.5 708.501L1417 671.793V745.208Z"></path>
  <path d="M1383.36 927.331L708.5 708.5L1402.36 856.417L1383.36 927.331Z"></path>
  <path d="M1303.73 1094.54L708.5 708.5L1340.43 1030.96L1303.73 1094.54Z"></path>
  <path d="M1183.53 1235.44L708.5 708.5L1235.44 1183.53L1183.53 1235.44Z"></path>
  <path d="M1030.96 1340.43L708.5 708.5L1094.54 1303.73L1030.96 1340.43Z"></path>
  <path d="M856.417 1402.36L708.5 708.5L927.331 1383.36L856.417 1402.36Z"></path>
  <path d="M671.793 1417L708.501 708.5L745.208 1417H671.793Z"></path>
  <path d="M489.668 1383.36L708.499 708.5L560.582 1402.36L489.668 1383.36Z"></path>
  <path d="M322.461 1303.73L708.502 708.5L386.043 1340.43L322.461 1303.73Z"></path>
  <path d="M181.562 1183.53L708.502 708.5L233.472 1235.44L181.562 1183.53Z"></path>
  <path d="M76.5703 1030.96L708.503 708.5L113.278 1094.54L76.5703 1030.96Z"></path>
  <path d="M14.6406 856.417L708.502 708.5L33.6454 927.331L14.6406 856.417Z"></path>
  <path d="M0 671.793L708.5 708.501L0 745.208V671.793Z"></path>
  <path d="M33.6454 489.668L708.502 708.499L14.6406 560.582L33.6454 489.668Z"></path>
  <path d="M113.278 322.459L708.503 708.5L76.5703 386.041L113.278 322.459Z"></path>
  <path d="M233.472 181.561L708.502 708.5L181.562 233.47L233.472 181.561Z"></path>
  <path d="M386.043 76.5664L708.502 708.499L322.461 113.274L386.043 76.5664Z"></path>
  <path d="M560.582 14.6387L708.499 708.5L489.668 33.6434L560.582 14.6387Z"></path>
  <path d="M745.208 0L708.501 708.5L671.793 0H745.208Z"></path>
</svg>