<svg width="307" height="307" viewBox="0 0 307 307" fill="none" xmlns="http://www.w3.org/2000/svg">
<path d="M154.424 225.944C193.914 225.944 225.937 193.929 225.937 154.439C225.937 114.95 193.922 82.9277 154.424 82.9277C114.925 82.9277 82.9102 114.942 82.9102 154.439C82.9102 193.937 114.925 225.944 154.424 225.944Z" fill="#2EC4B6"/>
<path d="M154.414 77.6875C112.107 77.6875 77.668 112.133 77.668 154.439C77.668 196.745 112.107 231.184 154.414 231.184C196.721 231.184 231.168 196.745 231.168 154.439C231.168 112.133 196.721 77.6875 154.414 77.6875ZM154.414 220.892C117.725 220.892 87.9597 191.128 87.9597 154.439C87.9597 117.751 117.725 87.9865 154.414 87.9865C191.103 87.9865 220.869 117.743 220.869 154.439C220.869 191.135 191.103 220.892 154.414 220.892Z" fill="#011627"/>
<path fill-rule="evenodd" clip-rule="evenodd" d="M153.5 0C68.6971 0 0 68.7029 0 153.504C0 238.305 68.6971 307 153.5 307C238.303 307 307 238.305 307 153.504C307 68.7029 238.303 0 153.5 0ZM11.228 153.504C11.228 74.8793 74.8736 11.2353 153.5 11.2353C232.126 11.2353 295.772 74.8793 295.772 153.504C295.772 232.128 232.126 295.772 153.5 295.772C74.8736 295.772 11.228 232.121 11.228 153.504Z" fill="#011627"/>
<path d="M155.379 189.075C173.992 189.075 189.078 173.989 189.078 155.376C189.078 136.764 173.992 121.686 155.379 121.686C136.766 121.686 121.688 136.772 121.688 155.376C121.688 173.981 136.774 189.075 155.379 189.075Z" fill="#011627"/>
<g opacity="0.21">
<path fill-rule="evenodd" clip-rule="evenodd" d="M160.218 186.252L164.522 218.078L158.156 186.441L160.218 186.252Z" fill="#011627"/>
<path fill-rule="evenodd" clip-rule="evenodd" d="M160.218 186.252L164.522 218.078L158.156 186.441L160.218 186.252Z" fill="#011627"/>
<path fill-rule="evenodd" clip-rule="evenodd" d="M163.585 184.75L171.823 215.821L161.523 185.309L163.585 184.75Z" fill="#011627"/>
<path fill-rule="evenodd" clip-rule="evenodd" d="M167.326 183.254L178.743 213.388L165.453 184.001L167.326 183.254Z" fill="#011627"/>
<path fill-rule="evenodd" clip-rule="evenodd" d="M169.967 181.191L185.393 209.355L168.117 182.105L169.975 181.191H169.967Z" fill="#011627"/>
<path fill-rule="evenodd" clip-rule="evenodd" d="M172.589 178.586L191.413 204.643L170.867 179.847L172.589 178.586Z" fill="#011627"/>
<path fill-rule="evenodd" clip-rule="evenodd" d="M175.546 175.846L197.006 199.887L174.066 177.212L175.546 175.846Z" fill="#011627"/>
<path fill-rule="evenodd" clip-rule="evenodd" d="M178.004 173.369L201.759 194.979L176.547 174.834L178.004 173.369Z" fill="#011627"/>
<path fill-rule="evenodd" clip-rule="evenodd" d="M179.622 170.062L205.906 188.569L178.406 171.814L179.622 170.062Z" fill="#011627"/>
<path fill-rule="evenodd" clip-rule="evenodd" d="M181.522 166.506L209.641 182.256L180.57 168.288L181.522 166.513V166.506Z" fill="#011627"/>
<path fill-rule="evenodd" clip-rule="evenodd" d="M184.243 164.549L215.065 173.557L183.578 166.504L184.243 164.549Z" fill="#011627"/>
<path fill-rule="evenodd" clip-rule="evenodd" d="M184.243 160.863L215.979 165.975L183.918 162.97L184.243 160.863Z" fill="#011627"/>
<path fill-rule="evenodd" clip-rule="evenodd" d="M184.4 156.832L216.581 158.659L184.324 158.848L184.4 156.832Z" fill="#011627"/>
<path fill-rule="evenodd" clip-rule="evenodd" d="M185.041 152.672L217.132 153.955L184.867 154.733L185.041 152.672Z" fill="#011627"/>
<path fill-rule="evenodd" clip-rule="evenodd" d="M184.133 149.093L216.163 146.375L184.329 151.215L184.133 149.093Z" fill="#011627"/>
<path fill-rule="evenodd" clip-rule="evenodd" d="M183.324 145.145L214.984 139.135L183.732 147.123L183.316 145.153L183.324 145.145Z" fill="#011627"/>
<path fill-rule="evenodd" clip-rule="evenodd" d="M181.734 142.231L212.149 131.932L182.308 144.216L181.734 142.231Z" fill="#011627"/>
<path fill-rule="evenodd" clip-rule="evenodd" d="M179.609 139.209L208.544 125.195L180.553 141.127L179.609 139.217V139.209Z" fill="#011627"/>
<path fill-rule="evenodd" clip-rule="evenodd" d="M177.43 135.82L204.839 118.861L178.525 137.519L177.43 135.828V135.82Z" fill="#011627"/>
<path fill-rule="evenodd" clip-rule="evenodd" d="M175.418 132.965L200.826 113.326L176.611 134.657L175.418 132.965Z" fill="#011627"/>
<path fill-rule="evenodd" clip-rule="evenodd" d="M172.43 130.798L195.226 108.131L173.947 132.3L172.43 130.798Z" fill="#011627"/>
<path fill-rule="evenodd" clip-rule="evenodd" d="M169.258 128.306L189.652 103.352L170.843 129.56L169.258 128.314V128.306Z" fill="#011627"/>
<path fill-rule="evenodd" clip-rule="evenodd" d="M165.781 125.8L180.581 97.168L167.593 126.797L165.781 125.8Z" fill="#011627"/>
<path fill-rule="evenodd" clip-rule="evenodd" d="M162.484 124.691L173.033 94.3223L164.349 125.272L162.484 124.691Z" fill="#011627"/>
<path fill-rule="evenodd" clip-rule="evenodd" d="M158.512 123.838L165.896 92.4648L160.482 124.26L158.512 123.838Z" fill="#011627"/>
<path fill-rule="evenodd" clip-rule="evenodd" d="M154.707 123.075L159.894 91.3848L156.731 123.497L154.707 123.075Z" fill="#011627"/>
<path fill-rule="evenodd" clip-rule="evenodd" d="M151.055 123.52L152.263 91.3926L153.184 123.581L151.055 123.513V123.52Z" fill="#011627"/>
<path fill-rule="evenodd" clip-rule="evenodd" d="M147.029 123.861L144.922 91.7031L149.037 123.695L147.029 123.861Z" fill="#011627"/>
<path fill-rule="evenodd" clip-rule="evenodd" d="M151.315 187.036L150.363 219.134L153.384 187.006L151.315 187.036Z" fill="#011627"/>
<path fill-rule="evenodd" clip-rule="evenodd" d="M155.25 186.998L156.956 219.382L157.13 186.99H155.25V186.998Z" fill="#011627"/>
<path fill-rule="evenodd" clip-rule="evenodd" d="M147.79 185.902L142.844 217.668L149.896 186.25L147.79 185.91V185.902Z" fill="#011627"/>
<path fill-rule="evenodd" clip-rule="evenodd" d="M143.923 184.801L135.715 215.97L145.863 185.352L143.923 184.801Z" fill="#011627"/>
<path fill-rule="evenodd" clip-rule="evenodd" d="M131.795 176.684L110.426 200.657L133.395 177.99L131.795 176.684Z" fill="#011627"/>
<path fill-rule="evenodd" clip-rule="evenodd" d="M129.825 173.559L105.617 194.715L131.214 175.174L129.817 173.559H129.825Z" fill="#011627"/>
<path fill-rule="evenodd" clip-rule="evenodd" d="M127.56 170.22L101.238 188.818L128.693 171.882L127.56 170.213V170.22Z" fill="#011627"/>
<path fill-rule="evenodd" clip-rule="evenodd" d="M140.933 183.434L127.508 212.609L142.843 184.219L140.933 183.441V183.434Z" fill="#011627"/>
<path fill-rule="evenodd" clip-rule="evenodd" d="M138.15 181.018L121.191 208.328L139.955 182.158L138.15 181.018Z" fill="#011627"/>
<path fill-rule="evenodd" clip-rule="evenodd" d="M135.004 178.488L115.273 203.972L136.574 179.749L135.004 178.488Z" fill="#011627"/>
<path fill-rule="evenodd" clip-rule="evenodd" d="M125.173 167.969L95.4609 180.155L126.042 169.849L125.173 167.969Z" fill="#011627"/>
<path fill-rule="evenodd" clip-rule="evenodd" d="M124.784 164.299L93.75 172.703L125.32 166.36L124.776 164.299H124.784Z" fill="#011627"/>
<path fill-rule="evenodd" clip-rule="evenodd" d="M124.202 160.312L92.3906 165.492L124.489 162.306L124.202 160.312Z" fill="#011627"/>
<path fill-rule="evenodd" clip-rule="evenodd" d="M123.211 156.229L91.4297 160.865L123.596 158.26L123.211 156.229Z" fill="#011627"/>
<path fill-rule="evenodd" clip-rule="evenodd" d="M123.73 152.574L91.5859 153.224L123.752 154.711L123.722 152.574H123.73Z" fill="#011627"/>
<path fill-rule="evenodd" clip-rule="evenodd" d="M124.141 148.565L92.0195 145.893L123.937 150.566L124.141 148.558V148.565Z" fill="#011627"/>
<path fill-rule="evenodd" clip-rule="evenodd" d="M125.367 145.501L94.0391 138.441L124.997 147.54L125.36 145.501H125.367Z" fill="#011627"/>
<path fill-rule="evenodd" clip-rule="evenodd" d="M127.163 142.276L96.9219 131.365L126.423 144.284L127.163 142.283V142.276Z" fill="#011627"/>
<path fill-rule="evenodd" clip-rule="evenodd" d="M129.002 138.675L99.9688 124.676L128.088 140.479L128.994 138.682L129.002 138.675Z" fill="#011627"/>
<path fill-rule="evenodd" clip-rule="evenodd" d="M130.686 135.631L103.367 118.756L129.682 137.436L130.693 135.631H130.686Z" fill="#011627"/>
<path fill-rule="evenodd" clip-rule="evenodd" d="M133.421 133.162L108.383 113.002L132.07 134.816L133.421 133.162Z" fill="#011627"/>
<path fill-rule="evenodd" clip-rule="evenodd" d="M136.316 130.346L113.43 107.656L134.874 131.75L136.316 130.346Z" fill="#011627"/>
<path fill-rule="evenodd" clip-rule="evenodd" d="M139.183 127L122.027 99.8555L137.484 128.178L139.183 127Z" fill="#011627"/>
<path fill-rule="evenodd" clip-rule="evenodd" d="M142.745 125.981L129.078 96.8809L140.805 126.872L142.745 125.981Z" fill="#011627"/>
<path fill-rule="evenodd" clip-rule="evenodd" d="M146.569 124.728L135.945 94.2988L144.659 125.354L146.577 124.728H146.569Z" fill="#011627"/>
</g>
<path d="M179.71 147.886C186.944 147.886 192.811 142.019 192.811 134.786C192.811 127.552 186.944 121.686 179.71 121.686C172.476 121.686 166.609 127.552 166.609 134.786C166.609 142.019 172.476 147.886 179.71 147.886Z" fill="#F6F7F8"/>
<path fill-rule="evenodd" clip-rule="evenodd" d="M153.525 7.67969C72.8826 7.67969 7.50781 73.0453 7.50781 153.686C7.50781 234.326 72.8826 299.699 153.525 299.699C234.167 299.699 299.542 234.326 299.542 153.686C299.542 73.0453 234.167 7.67969 153.525 7.67969ZM153.525 292.217C77.0204 292.217 14.9982 230.196 14.9982 153.686C14.9982 77.1754 77.0204 15.1623 153.525 15.1623C230.03 15.1623 292.052 77.183 292.052 153.686C292.052 230.188 230.03 292.217 153.525 292.217Z" fill="#2EC4B6"/>
<path fill-rule="evenodd" clip-rule="evenodd" d="M153.527 15.1621C77.0222 15.1621 15 77.1828 15 153.685C15 230.188 77.0222 292.216 153.527 292.216C230.031 292.216 292.054 230.196 292.054 153.685C292.054 77.1752 230.031 15.1621 153.527 15.1621ZM154.418 231.185C112.111 231.185 77.6716 196.747 77.6716 154.441C77.6716 112.135 112.111 77.6887 154.418 77.6887C196.725 77.6887 231.172 112.135 231.172 154.441C231.172 196.747 196.725 231.185 154.418 231.185Z" fill="#F6F7F8"/>
</svg>
