<svg width="19" height="18" viewBox="0 0 19 18" fill="none" xmlns="http://www.w3.org/2000/svg">
<path d="M4.84572 3.04297C5.71108 4.13164 6.21354 5.49946 6.21354 7.00684C6.21354 8.29092 5.82273 9.49124 5.1807 10.4962H0.546875L4.84572 3.04297Z" fill="#F6F7F8"/>
<path d="M18.9983 12.1404C18.9983 12.1962 18.9704 12.2521 18.9145 12.28C18.6075 12.4195 17.5746 12.8941 17.128 13.5082C16.0114 15.0435 15.174 17.5 13.2758 17.5H5.32013C2.50075 17.5 0.155926 15.2668 0.18384 12.3079C0.18384 12.2241 0.23967 12.1683 0.323414 12.1683H4.06397C4.20354 12.1683 4.28729 12.28 4.28729 12.3916V13.1174C4.28729 13.5082 4.59435 13.8153 4.98515 13.8153H7.83244V12.1683H5.87842C6.995 10.7447 7.66496 8.95813 7.66496 7.00411C7.66496 4.82677 6.82752 2.84483 5.4597 1.36535C6.29714 1.4491 7.07875 1.61658 7.80453 1.8399V1.36535C7.80453 0.890805 8.19533 0.5 8.66988 0.5C9.14443 0.5 9.53524 0.890805 9.53524 1.36535V2.48194C12.1871 3.71018 13.9457 5.77586 13.9457 8.12069C13.9457 9.48851 13.3595 10.7726 12.3267 11.8333C12.1313 12.0287 11.8521 12.1404 11.573 12.1404H9.56315V13.7874H12.0755C12.6058 13.7874 13.5829 12.7545 14.0574 12.1404C14.0574 12.1404 14.0853 12.1125 14.1411 12.0846C14.197 12.0567 18.775 11.0238 18.775 11.0238C18.8587 10.9959 18.9704 11.0796 18.9704 11.1634L18.9983 12.1404Z" fill="#F6F7F8"/>
</svg>
