<svg viewBox="0 0 260 272" fill="none" xmlns="http://www.w3.org/2000/svg">
  <g clip-path="url(#clip0_880_110413)">
    <path opacity="0.98" fill-rule="evenodd" clip-rule="evenodd"
      d="M128.039 0.000138801C137.468 -0.182917 144.357 3.82396 148.685 12.0208C152.587 30.2246 156.102 48.5098 159.191 66.8764C159.414 67.4866 159.8 67.9747 160.308 68.3815C174.919 59.6355 189.427 50.7472 203.855 41.7164C212.857 38.3604 220.985 39.7435 228.26 45.8453C233.604 52.6794 234.844 60.1847 232.019 68.3815C223.261 81.9073 214.117 95.1889 204.627 108.206C220.111 112.579 235.616 116.973 251.161 121.346C259.675 128.464 262.032 137.353 258.293 148.011C256.688 151.346 254.311 153.97 251.161 155.902C233.624 160.784 216.088 165.686 198.612 170.547C205.989 184.317 213.385 198.107 220.762 211.877C224.663 228.087 218.425 237.606 201.986 240.433C199.08 239.986 196.194 239.355 193.349 238.562C181.198 230.101 169.188 221.477 157.321 212.65C153.643 228.636 150.026 244.664 146.429 260.732C142.528 267.708 136.513 271.471 128.405 272C121.13 271.736 115.38 268.746 111.133 262.99C106.134 245.701 101.257 228.433 96.5021 211.144C84.1067 218.467 71.6096 225.606 58.9703 232.562C50.3138 235.552 42.4294 234.189 35.3173 228.433C29.8511 221.355 28.6115 213.585 31.558 205.144C39.1985 192.493 46.8187 179.842 54.4591 167.191C39.3611 163.408 24.3646 159.401 9.42904 155.17C-1.58463 145.794 -2.9461 135.156 5.304 123.237C7.78309 120.939 10.6483 119.312 13.9402 118.356C28.6725 114.979 43.4455 111.725 58.2387 108.593C50.8015 93.8465 43.669 78.9377 36.8413 63.8865C33.6307 47.9403 40.0113 38.6858 55.9832 36.0824C58.7061 36.835 61.4697 37.4451 64.2333 37.9536C75.5924 45.703 86.8499 53.5947 98.0058 61.6288C102.72 45.4589 107.109 29.1873 111.133 12.7937C114.689 5.6952 120.318 1.4239 128.039 0.000138801Z"
      fill="#F6F7F8" />
    <path fill-rule="evenodd" clip-rule="evenodd"
      d="M128.038 17.288C129.562 17.1659 131.066 17.288 132.549 17.6541C133.017 18.2236 133.403 18.8541 133.667 19.5253C138.178 44.97 143.055 70.2723 148.298 95.4119C169.411 82.6591 190.442 69.7638 211.352 56.7262C215.883 56.0143 217.529 57.8856 216.229 62.3603C203.102 81.154 189.955 99.9273 176.828 118.721C197.717 124.579 218.728 129.948 239.882 134.871C244.617 136.843 244.881 139.366 240.634 142.376C218.627 147.888 196.599 153.4 174.572 158.912C174.227 159.217 173.983 159.603 173.82 160.031C184.204 179.312 194.588 198.594 204.971 217.876C205.723 221.883 204.077 223.774 200.094 223.51C182.152 209.842 164.005 196.438 145.676 183.319C140.82 206.567 136.044 229.856 131.411 253.206C128.81 255.402 126.555 255.138 124.665 252.453C119.361 229.754 113.611 207.198 107.393 184.824C88.7385 196.418 69.7186 207.442 50.3329 217.876C46.6549 216.757 45.6388 214.52 47.3254 211.123C58.5017 193.164 69.3934 175 79.9804 156.654C59.5177 151.407 38.9941 146.139 18.4298 140.871C16.2352 138.267 16.4993 136.01 19.1816 134.118C40.2336 129.521 61.2653 124.762 82.236 119.84C72.7057 99.8866 63.0738 79.9743 53.3403 60.1026C51.0238 54.8957 52.6494 52.7804 58.2172 53.716C74.6564 65.879 91.2989 77.7776 108.145 89.4118C114.159 66.3671 120.154 43.3225 126.169 20.2779C126.656 19.1592 127.286 18.1625 128.038 17.2676V17.288Z"
      fill="#011627" />
    <path fill-rule="evenodd" clip-rule="evenodd"
      d="M128.791 39.8242C129.97 40.7192 130.6 41.9599 130.661 43.587C134.054 63.9672 137.814 84.2457 141.918 104.443C143.625 106.314 145.515 106.436 147.547 104.809C164.758 94.2527 181.889 83.6151 198.958 72.8759C198.937 74.2183 198.429 75.459 197.454 76.6387C187.7 90.4085 177.946 104.199 168.172 117.969C166.425 120.755 166.811 123.135 169.29 125.108C187.314 129.623 205.338 134.118 223.342 138.633C204.891 143.617 186.379 148.376 167.786 152.912C164.474 153.481 163.356 155.353 164.413 158.546C172.948 173.983 181.32 189.503 189.57 205.123C189.326 205.367 189.062 205.632 188.818 205.876C173.923 194.303 158.662 183.279 143.036 172.824C141.451 172.926 140.333 173.678 139.663 175.082C135.66 194.628 131.656 214.154 127.653 233.68C122.776 214.927 118.021 196.133 113.388 177.319C112.23 175.367 110.625 174.756 108.511 175.448C93.0679 185.13 77.4212 194.506 61.5916 203.618C70.4106 187.489 79.6768 171.461 89.3696 155.536C90.0808 152.586 88.9632 150.715 85.9964 149.902C69.6385 146.24 53.3821 142.234 37.207 137.881C53.9104 133.935 70.6951 130.172 87.5001 126.613C88.8819 126.409 89.9995 125.779 90.8733 124.742C91.3 122.077 90.792 119.575 89.3696 117.236C81.404 101.31 73.9058 85.283 66.8546 69.1538C80.3067 78.7133 93.6978 88.3542 107.008 98.0765C108.898 99.1545 110.909 99.3986 113.023 98.8291C118.794 79.3235 124.057 59.6552 128.791 39.8446V39.8242Z"
      fill="#FFDA00" />
  </g>
  <defs>
    <clipPath id="clip0_880_110413">
      <rect width="260" height="272" fill="white" />
    </clipPath>
  </defs>
</svg>